<?xml version="1.0" encoding="UTF-8"?>
<svg version="1.1" xmlns="http://www.w3.org/2000/svg" width="2500" height="2500">
<path d="M0 0 C47.52 0 95.04 0 144 0 C144 55.11 144 110.22 144 167 C187.2166868 161.07981973 187.2166868 161.07981973 230.43237305 155.15234375 C238.78869629 154.00976563 238.78869629 154.00976563 242.70002747 153.47583008 C245.43331735 153.10206133 248.1664397 152.72721825 250.89936829 152.35083008 C254.38604018 151.87069667 257.87313825 151.39378293 261.36056864 150.91919136 C263.24335771 150.66214981 265.12569576 150.40181122 267.00801373 150.14134216 C268.12324319 149.99020462 269.23847265 149.83906708 270.38749695 149.68334961 C271.35630137 149.55061142 272.3251058 149.41787323 273.32326794 149.28111267 C275.90550254 149.0099242 278.40588942 148.94844974 281 149 C280.44628664 160.16734824 278.99444674 171.1477689 277.41601562 182.20800781 C276.99592619 185.15356446 276.58336948 188.10010651 276.171875 191.046875 C275.90668323 192.92974857 275.64107373 194.81256336 275.375 196.6953125 C275.1905835 198.00932541 275.1905835 198.00932541 275.00244141 199.34988403 C274.88562012 200.16528656 274.76879883 200.98068909 274.6484375 201.82080078 C274.54708496 202.53358185 274.44573242 203.24636292 274.34130859 203.98074341 C273.99871135 206.00762396 273.49856368 208.00574528 273 210 C252.87 210.33 232.74 210.66 212 211 C212.33 211.33 212.66 211.66 213 212 C213.63074889 216.74766394 211.9098895 219.25611683 209.375 223.1875 C191.3239493 252.18646713 178.07542296 283.54359654 165 315 C165.71542969 314.27039062 166.43085938 313.54078125 167.16796875 312.7890625 C174.9052902 305.1691349 182.23452849 298.21612804 193.5 297.5625 C202.84990871 298.00849224 208.59172313 304.03540901 215.03125 310.19921875 C217.56434287 312.62377381 220.22336596 314.84143365 222.9375 317.0625 C228.77773253 322.22437521 232.48826013 329.15332206 233 337 C233.12375 338.7015625 233.12375 338.7015625 233.25 340.4375 C233.14330367 349.66673228 230.35318937 359.13028621 228 368 C236.3536015 359.39737515 243.32270442 349.76424626 250.42529297 340.13134766 C251.94067835 338.08029116 253.46742749 336.03823486 255 334 C262.625 334.875 262.625 334.875 266 336 C267.03885976 342.55780224 263.41508906 346.88064925 260 352.125 C259.10414185 353.53168945 259.10414185 353.53168945 258.19018555 354.96679688 C256.47341622 357.65338864 254.73885765 360.32767254 253 363 C252.23503425 364.19490121 251.47059859 365.39014219 250.70703125 366.5859375 C243.41233653 377.80623082 235.19209562 388.27090911 226 398 C224.81277344 399.28390625 224.81277344 399.28390625 223.6015625 400.59375 C222.78429688 401.4496875 221.96703125 402.305625 221.125 403.1875 C220.40570312 403.94417969 219.68640625 404.70085937 218.9453125 405.48046875 C211.03149889 412.25024299 202.22385823 416.49082504 192.5625 420.1875 C191.52029297 420.59935547 190.47808594 421.01121094 189.40429688 421.43554688 C165.45057308 430.80616046 165.45057308 430.80616046 159 429 C156.22171677 427.36917033 153.77731327 425.51074439 151.25390625 423.5078125 C147.33807074 420.40678213 143.14046337 417.75375519 138.9375 415.0625 C138.18662109 414.5780542 137.43574219 414.0936084 136.66210938 413.59448242 C132.91141226 411.15764127 132.91141226 411.15764127 129 409 C128.84869629 409.6069873 128.69739258 410.21397461 128.54150391 410.83935547 C126.49040821 418.72584021 123.87530772 426.35548944 121.12890625 434.01953125 C120.36447426 436.15439571 119.60763844 438.29185114 118.8515625 440.4296875 C115.13815752 450.86184248 115.13815752 450.86184248 114 452 C105.7381042 452 101.40760749 448.94197326 95 444 C94.34 443.67 93.68 443.34 93 443 C92.35933594 443.845625 91.71867187 444.69125 91.05859375 445.5625 C80.12610386 459.93473486 67.95819512 475.76828109 49.01171875 479.37890625 C40.29303634 480.06760889 33.97187389 475.63445081 27 471 C26.36884277 470.58298828 25.73768555 470.16597656 25.08740234 469.73632812 C23.19031064 468.46806127 21.31032104 467.17880603 19.4375 465.875 C18.86612305 465.48006348 18.29474609 465.08512695 17.70605469 464.67822266 C10.99963761 459.85015891 6.98354695 454.8445386 5.59375 446.5859375 C3.77589973 431.58867275 6.77977454 417.00714947 12 403 C12.37318359 401.98969727 12.37318359 401.98969727 12.75390625 400.95898438 C18.57471263 385.47095935 25.60496322 369.19912203 37 357 C37.680625 356.26394531 38.36125 355.52789063 39.0625 354.76953125 C44.29411119 349.32984462 49.31893269 344.43434451 57.15478516 343.70727539 C61.93045416 344.07083267 65.27233102 345.58859643 69.5234375 347.68359375 C70.31021881 348.05855484 71.09700012 348.43351593 71.90762329 348.81983948 C74.40302174 350.01314462 76.88877946 351.22520866 79.375 352.4375 C81.06843779 353.24924256 82.76244314 354.0598022 84.45703125 354.86914062 C96.78310282 360.78310282 96.78310282 360.78310282 98 362 C98.3889834 367.33175523 97.44225472 371.45935836 95.375 376.3125 C95.10357178 376.96549072 94.83214355 377.61848145 94.55249023 378.29125977 C86.6615004 396.79167745 71.55322888 412.23081018 52.7265625 419.9296875 C50.56570683 420.71144211 50.56570683 420.71144211 48 423 C44.24623494 432.02529795 43.07470526 445.53997428 46 455 C57.16983945 455 64.65906844 446.5952294 72.125 439.1875 C84.76329271 426.34702202 91.22235452 414.29244614 97.48202515 397.5149231 C119.20384634 339.37948742 143.22870924 281.93127981 168.45800781 225.23730469 C168.89907112 224.24600555 168.89907112 224.24600555 169.3490448 223.23468018 C170.13041018 221.48067378 170.91387148 219.72760148 171.69750977 217.97460938 C172.85153418 215.3390642 173.93146115 212.67134712 175 210 C146.95 210 118.9 210 90 210 C89.34 211.65 88.68 213.3 88 215 C86.65462834 217.01380895 85.25054707 218.98878965 83.8125 220.9375 C77.11648418 230.14924026 70.73749713 239.56866964 64.35455322 248.99908447 C62.84554405 251.22815885 61.33559761 253.45659704 59.82568359 255.68505859 C28.14550596 302.45549171 -2.77907912 349.64375226 -32 398 C-32.60312012 398.99612305 -33.20624023 399.99224609 -33.82763672 401.01855469 C-72.21482845 464.46194813 -108.03282197 530.00690932 -137.69970703 598.02709961 C-141.24473322 606.14522923 -144.93204607 614.1260864 -149 622 C-155.41061728 622.24607684 -160.46187056 621.6798191 -166.5 619.5625 C-167.26320557 619.30170654 -168.02641113 619.04091309 -168.81274414 618.7722168 C-190.31528357 611.0853293 -190.31528357 611.0853293 -196 604 C-196.40405273 602.03442383 -196.40405273 602.03442383 -196.43359375 599.70703125 C-196.44527588 598.79542236 -196.45695801 597.88381348 -196.46899414 596.94458008 C-196.45860107 595.91099365 -196.44820801 594.87740723 -196.4375 593.8125 C-196.42775146 592.67127686 -196.41800293 591.53005371 -196.40795898 590.35424805 C-195.52390025 543.81080305 -188.45164796 497.18033925 -183 451 C-182.81262268 449.41237225 -182.81262268 449.41237225 -182.62145996 447.7926712 C-180.05969843 426.09181487 -177.48782189 404.39215846 -174.8984375 382.69458008 C-174.70770283 381.09620851 -174.70770283 381.09620851 -174.51311493 379.46554661 C-173.91376559 374.44401539 -173.31386015 369.42255153 -172.7130127 364.40119934 C-172.49942868 362.61398335 -172.28584623 360.82676718 -172.07226562 359.03955078 C-171.9777713 358.251414 -171.88327698 357.46327723 -171.78591919 356.65125751 C-171.16317234 351.43704942 -170.57434727 346.21976743 -170 341 C-175.68290104 347.66487291 -181.33135845 354.34284512 -186.7734375 361.20703125 C-189.65760903 364.82489554 -192.57890552 368.41192643 -195.5 372 C-199.64119182 377.08930989 -203.76325194 382.19226773 -207.8515625 387.32421875 C-209.56628271 389.45982483 -211.29092583 391.58590389 -213.0234375 393.70703125 C-218.93255302 400.9432531 -224.74189529 408.22638213 -230.40625 415.65625 C-233.3621134 419.49887241 -236.43117322 423.24743114 -239.5 427 C-244.29030574 432.86008033 -248.96314594 438.79212286 -253.5546875 444.80859375 C-256.08858767 448.12631099 -258.66581281 451.40887955 -261.25 454.6875 C-267.26189341 462.31991625 -273.22364642 469.99094423 -279.18408203 477.66357422 C-281.00557308 480.00717053 -282.82868777 482.34949427 -284.65234375 484.69140625 C-291.46355891 493.4392245 -298.24949634 502.20525063 -305 511 C-306.60405092 513.08342246 -308.20822017 515.1667538 -309.8125 517.25 C-315.28801469 524.36644521 -320.7436916 531.49802608 -326.19335938 538.63427734 C-327.42876827 540.25199521 -328.66445851 541.86949825 -329.90039062 543.48681641 C-337.765963 553.7814626 -345.5938268 564.10227361 -353.3527832 574.47753906 C-357.88661367 580.53374266 -362.4670851 586.55294131 -367.0625 592.5625 C-372.71209125 599.95566613 -378.27897708 607.40334597 -383.78149414 614.90649414 C-387.98333658 620.63303065 -392.23064531 626.32364892 -396.5 632 C-403.1449767 640.83939625 -409.71854815 649.72940616 -416.26611328 658.64111328 C-419.17371637 662.59679633 -422.08723303 666.54811884 -425 670.5 C-425.8652832 671.6746582 -425.8652832 671.6746582 -426.74804688 672.87304688 C-429.67442136 676.84572286 -432.60284293 680.81686142 -435.53515625 684.78515625 C-441.77191802 693.22962131 -447.96680784 701.70128521 -454.09912109 710.22192383 C-458.0901286 715.76000728 -462.12996332 721.26052074 -466.1875 726.75 C-471.87143982 734.44496521 -477.47407995 742.1909798 -483 750 C-483.43957031 750.61955566 -483.87914062 751.23911133 -484.33203125 751.87744141 C-492.67213451 763.63287569 -500.91197855 775.45758015 -509.12402344 787.30273438 C-510.83688181 789.76546984 -512.56050019 792.22014953 -514.2890625 794.671875 C-519.12057147 801.55426504 -523.57340058 808.28282952 -527 816 C-528.625 819.5625 -528.625 819.5625 -530 822 C-530.99 822.33 -531.98 822.66 -533 823 C-533.33 823.66 -533.66 824.32 -534 825 C-536.1875 825.4375 -536.1875 825.4375 -539 825 C-540.18022299 823.38140847 -541.34701745 821.75040802 -542.42578125 820.0625 C-544.94553874 816.76118001 -548.2247509 814.5027299 -551.4921875 811.9765625 C-553.76132452 810.18811494 -555.90587549 808.36398018 -558 806.375 C-558.53625 805.86710937 -559.0725 805.35921875 -559.625 804.8359375 C-561.59798421 802.20155518 -562.31088535 800.25324613 -563 797 C-562.41184957 793.80788439 -561.26442939 790.877791 -560.08984375 787.859375 C-559.60257057 786.54305084 -559.60257057 786.54305084 -559.10545349 785.20013428 C-558.08690266 782.46019874 -557.04399483 779.73032475 -556 777 C-555.38885966 775.36074358 -554.77957977 773.72079208 -554.17236328 772.08007812 C-552.33186757 767.12536606 -550.4511432 762.1865274 -548.5625 757.25 C-548.22062653 756.35437347 -547.87875305 755.45874695 -547.52651978 754.53598022 C-540.25609131 735.50229797 -532.71790187 716.58041317 -525.08587646 697.68933105 C-523.95773564 694.89532616 -522.83140669 692.10059672 -521.70556641 689.30566406 C-511.85892644 664.86187701 -501.93829744 640.44957453 -491.90940857 616.08000183 C-489.63636508 610.55437459 -487.37448824 605.02426214 -485.1171875 599.4921875 C-477.2072323 580.11905697 -469.15256776 560.81177051 -460.99462891 541.54174805 C-456.15237235 530.10330489 -451.33400484 518.6556421 -446.5625 507.1875 C-446.2668515 506.47735748 -445.971203 505.76721497 -445.66659546 505.03555298 C-442.67779 497.85617193 -439.69368734 490.67485043 -436.71630859 483.49072266 C-424.72240902 454.55192581 -412.52318753 425.71385725 -400 397 C-399.38266998 395.58361237 -399.38266998 395.58361237 -398.75286865 394.13861084 C-395.86191812 387.50651212 -392.96421577 380.87739484 -390.0625 374.25 C-389.49012604 372.94073044 -389.49012604 372.94073044 -388.90618896 371.60501099 C-387.82642807 369.13672166 -386.74376847 366.66972555 -385.66015625 364.203125 C-385.34745285 363.48742844 -385.03474945 362.77173187 -384.71257019 362.03434753 C-382.61781622 357.27839006 -380.35346151 352.63361051 -378 348 C-365.80974325 347.49429066 -355.32936621 353.7195246 -344.625 359 C-343.80547852 359.4026709 -342.98595703 359.8053418 -342.14160156 360.22021484 C-337.98187885 362.31689675 -333.92429696 364.55089127 -329.9609375 367 C-328.85564697 367.680625 -328.85564697 367.680625 -327.72802734 368.375 C-325.41886492 370.54648701 -325.09817048 371.84744217 -325 375 C-326.05712891 377.49755859 -326.05712891 377.49755859 -327.7265625 380.1484375 C-328.64598633 381.63790894 -328.64598633 381.63790894 -329.58398438 383.1574707 C-330.59428711 384.75014771 -330.59428711 384.75014771 -331.625 386.375 C-332.67081265 388.07027212 -333.71658763 389.76557086 -334.7588501 391.46302795 C-335.46969027 392.62048839 -336.18206678 393.77700663 -336.89593506 394.93260193 C-342.56176636 404.11739623 -347.78274906 413.55567907 -353 423 C-353.52368164 423.94294922 -354.04736328 424.88589844 -354.58691406 425.85742188 C-373.2764619 459.65066624 -390.51190003 494.49549142 -406.46728516 529.65673828 C-409.20651134 535.63172447 -412.03222187 541.56600209 -414.84390259 547.50714111 C-422.75097114 564.22743057 -430.46736127 581.02964347 -438.05395508 597.89758301 C-439.00278767 600.00619511 -439.95341126 602.11399271 -440.90429688 604.22167969 C-449.23206262 622.69541905 -457.30073014 641.27115318 -465.1875 659.9375 C-465.59359497 660.89748901 -465.99968994 661.85747803 -466.41809082 662.84655762 C-470.78035475 673.16982792 -475.08526276 683.49689775 -479 694 C-478.64397705 693.48840332 -478.2879541 692.97680664 -477.92114258 692.44970703 C-469.92051703 680.96248231 -461.83346708 669.54563876 -453.60888672 658.21777344 C-450.89956783 654.48310686 -448.20040679 650.74111262 -445.5 647 C-444.41538248 645.49868499 -443.33074707 643.9973829 -442.24609375 642.49609375 C-440.08994701 639.51090892 -437.93652496 636.52378612 -435.78515625 633.53515625 C-429.65338507 625.02211471 -423.47130916 616.54916359 -417.23510742 608.11230469 C-413.24357678 602.70603328 -409.29796659 597.26867457 -405.375 591.8125 C-400.84842145 585.52131149 -396.24968139 579.29136097 -391.58496094 573.10205078 C-385.92397558 565.5867322 -380.35539278 558.00388079 -374.78222656 550.42333984 C-372.43867626 547.2367535 -370.09217267 544.05234918 -367.74536133 540.86816406 C-366.58093608 539.28823331 -365.41671109 537.70815495 -364.25268555 536.12792969 C-361.32605558 532.15493656 -358.39739887 528.18346582 -355.46484375 524.21484375 C-349.2259032 515.76742867 -343.02941003 507.29241591 -336.89428711 498.76928711 C-332.38568587 492.5137479 -327.81319395 486.30681654 -323.23046875 480.10546875 C-319.28584489 474.76142179 -315.38041885 469.39081451 -311.5 464 C-305.31916137 455.41628409 -299.05214141 446.89798492 -292.76611328 438.39111328 C-289.84043897 434.43008838 -286.92049694 430.46484283 -284 426.5 C-282.8333611 424.91664621 -281.66669442 423.33331288 -280.5 421.75 C-279.9225 420.96625 -279.345 420.1825 -278.75 419.375 C-259.5 393.25 -259.5 393.25 -257.74975586 390.87475586 C-256.58379194 389.29231815 -255.41793896 387.70979869 -254.25219727 386.12719727 C-251.32568557 382.15448113 -248.39722466 378.18323006 -245.46484375 374.21484375 C-237.57139166 363.52763563 -229.76078433 352.78385308 -222 342 C-209.47656613 324.59829609 -196.83664716 307.30193855 -183.76855469 290.30419922 C-181.12130478 286.85517317 -178.48401925 283.39859612 -175.84936523 279.93994141 C-174.46168892 278.12058302 -173.07062998 276.30379916 -171.67602539 274.48974609 C-168.79149748 270.72811127 -165.93763879 266.97562875 -163.30078125 263.03515625 C-162.56214844 261.95105469 -161.82351563 260.86695313 -161.0625 259.75 C-160.47597656 258.83734375 -159.88945313 257.9246875 -159.28515625 256.984375 C-155.75407181 253.91806577 -152.58328969 253.83623724 -148 254 C-143.39740147 254.57738036 -138.90385401 255.50531293 -134.375 256.5 C-132.472948 256.90677979 -132.472948 256.90677979 -130.5324707 257.32177734 C-122.32718813 259.12871868 -114.23092485 261.19749783 -106.1875 263.625 C-104.81247314 264.03975586 -104.81247314 264.03975586 -103.40966797 264.46289062 C-91.21581534 268.31286238 -91.21581534 268.31286238 -88 271 C-86.14466713 275.59113602 -87.82694221 279.47270811 -89.39453125 283.90234375 C-89.93856096 285.51025168 -90.48233173 287.11824725 -91.02587891 288.72631836 C-91.46253876 289.99715775 -91.46253876 289.99715775 -91.90802002 291.29367065 C-120.21199668 374.02726974 -133.88172559 462.47482 -145.00390625 548.9296875 C-145.15784599 550.12372696 -145.15784599 550.12372696 -145.31489563 551.34188843 C-145.81947552 555.15899604 -145.81947552 555.15899604 -146 559 C-145.5126236 557.99560883 -145.02524719 556.99121765 -144.52310181 555.95639038 C-131.92474636 530.0069152 -119.15451726 504.14738497 -106.24169922 478.35302734 C-103.82358561 473.5225846 -101.40916891 468.69030432 -98.99573326 463.85752296 C-97.08730058 460.03701195 -95.17693249 456.21747114 -93.26601028 452.3982048 C-92.37495341 450.61674475 -91.48446042 448.83500251 -90.59461594 447.05293655 C-85.23979477 436.3320817 -79.77014597 425.68157211 -74.15689087 415.09359741 C-71.34254517 409.77586016 -68.66165294 404.39566704 -66 399 C-62.56293202 392.07775493 -59.07902455 385.19183316 -55.4375 378.375 C-50.2667672 368.67987601 -45.39765123 358.83477786 -40.5 349 C-35.36211397 338.68293511 -30.22661086 328.37612638 -24.78515625 318.21484375 C-19.79842142 308.84115319 -15.12717263 299.30308465 -10.41357422 289.79003906 C-6.3456997 281.59560372 -2.16718554 273.46959653 2.11221313 265.38360596 C5.26449006 259.41974111 8.36134862 253.42933073 11.4296875 247.421875 C12.10278961 246.10419128 12.10278961 246.10419128 12.78948975 244.7598877 C14.61965345 241.1745259 16.44793068 237.58820543 18.27539062 234.00146484 C19.63790043 231.32837305 21.00244749 228.65632868 22.3671875 225.984375 C22.77452118 225.18328308 23.18185486 224.38219116 23.60153198 223.55682373 C23.98938873 222.79782776 24.37724548 222.03883179 24.77685547 221.25683594 C25.11087372 220.60132751 25.44489197 219.94581909 25.78903198 219.27044678 C27.457277 216.14265028 29.24124853 213.07781507 31 210 C20.77 210 10.54 210 0 210 C0 140.7 0 71.4 0 0 Z M170 335 C157.49674594 350.5243225 146.71674654 375.93109678 146 396 C146.6758165 399.31764465 147.18197338 401.21343594 149.625 403.5625 C153.55081417 404.2856763 156.63935946 402.89759623 160 401 C165.11167365 396.75168831 168.9177249 391.65108082 172.4375 386.0625 C172.90631592 385.32596191 173.37513184 384.58942383 173.8581543 383.83056641 C178.45750084 376.47757594 182.41883739 368.89415409 186 361 C186.28214355 360.38447266 186.56428711 359.76894531 186.85498047 359.13476562 C190.20199328 351.71098471 192.63905419 344.28482046 194.5 336.375 C194.6846582 335.61654785 194.86931641 334.8580957 195.05957031 334.07666016 C195.99930858 329.73693715 196.22028819 326.91550823 194 323 C192.96333108 321.74758747 192.96333108 321.74758747 190.703125 321.8125 C182.66232635 322.37024326 175.21997103 329.33519666 170 335 Z M62 377 C56.89370685 384.23208901 50 395.76509855 50 405 C61.26846333 400.07814245 70.29414756 388.45047173 75.15234375 377.515625 C76.2128775 374.81066752 76.2128775 374.81066752 76 371 C69.24287591 370.17259705 66.21279213 372.01954353 62 377 Z " fill="#502A59" transform="translate(1974,959)"/>
<path d="M0 0 C57.46317057 -0.08060607 57.46317057 -0.08060607 81.65234375 -0.09765625 C87.17822278 -0.10157102 92.70410169 -0.10561171 98.22998047 -0.10986328 C98.92240235 -0.11039078 99.61482423 -0.11091828 100.32822859 -0.11146176 C111.45516119 -0.12012142 122.58207276 -0.13586716 133.70899296 -0.15430559 C145.15839433 -0.17311784 156.60778104 -0.18399109 168.05719757 -0.18817699 C174.47542881 -0.1907682 180.89361267 -0.19679245 187.31182861 -0.21146011 C193.37252955 -0.22519643 199.43316429 -0.22919078 205.49387932 -0.22621536 C207.69945576 -0.22675844 209.90503479 -0.23063908 212.11059761 -0.23841095 C253.28363764 -0.37618193 293.4204616 4.72130759 324 35 C339.96494867 51.35987963 351.0881161 74.97493158 352 98 C352.0515625 99.06992188 352.103125 100.13984375 352.15625 101.2421875 C352.84325932 128.32180481 343.92121661 153.56456525 325.46191406 173.46386719 C317.53319251 181.79511568 309.17358669 188.48883568 299 194 C298.38592285 194.33628418 297.7718457 194.67256836 297.13916016 195.01904297 C288.55423168 199.63802521 279.85996963 202.87866145 270.4375 205.375 C269.54111816 205.6136377 268.64473633 205.85227539 267.72119141 206.09814453 C251.51341256 210.11451403 235.46792904 210.28226519 218.87695312 210.22705078 C216.48053492 210.2264856 214.08411637 210.22680532 211.68769836 210.22793579 C205.22807718 210.22850612 198.76853132 210.21680396 192.30892754 210.20278788 C186.22824101 210.19053257 180.147548 210.18953656 174.0668512 210.18748413 C162.03527606 210.18312369 150.00372828 210.16985978 137.97216797 210.15087891 C126.29541151 210.1324771 114.61866256 210.11836471 102.94189453 210.10986328 C102.21292925 210.10932729 101.48396398 210.10879129 100.73290884 210.10823905 C94.39041511 210.10361239 88.04792116 210.09930725 81.70542717 210.09503365 C54.470259 210.07626685 27.23516353 210.03641065 0 210 C0 140.7 0 71.4 0 0 Z M140 39 C140 82.56 140 126.12 140 171 C172.50753736 172.0035139 172.50753736 172.0035139 199.1875 157.4375 C209.44076716 146.60189718 212.30691899 134.19950735 212.3359375 119.828125 C212.3425943 118.66931824 212.3492511 117.51051147 212.35610962 116.31658936 C212.36620087 113.87253396 212.37092774 111.42845121 212.37060547 108.984375 C212.37496991 105.27557161 212.41130563 101.56796761 212.44921875 97.859375 C212.45508961 95.47396236 212.4590572 93.08854412 212.4609375 90.703125 C212.47530853 89.60897278 212.48967957 88.51482056 212.50448608 87.38751221 C212.42750182 74.19586206 207.84810812 62.45909174 198.8984375 52.7109375 C182.28454176 37.03634328 162.39957786 39 140 39 Z " fill="#29124A" transform="translate(258,959)"/>
<path d="M0 0 C47.52 0 95.04 0 144 0 C144 55.11 144 110.22 144 167 C187.2166868 161.07981973 187.2166868 161.07981973 230.43237305 155.15234375 C238.78869629 154.00976563 238.78869629 154.00976563 242.70002747 153.47583008 C245.43331735 153.10206133 248.1664397 152.72721825 250.89936829 152.35083008 C254.38604018 151.87069667 257.87313825 151.39378293 261.36056864 150.91919136 C263.24335771 150.66214981 265.12569576 150.40181122 267.00801373 150.14134216 C268.12324319 149.99020462 269.23847265 149.83906708 270.38749695 149.68334961 C271.35630137 149.55061142 272.3251058 149.41787323 273.32326794 149.28111267 C275.90550254 149.0099242 278.40588942 148.94844974 281 149 C280.44628664 160.16734824 278.99444674 171.1477689 277.41601562 182.20800781 C276.99592619 185.15356446 276.58336948 188.10010651 276.171875 191.046875 C275.90668323 192.92974857 275.64107373 194.81256336 275.375 196.6953125 C275.25205566 197.57132111 275.12911133 198.44732971 275.00244141 199.34988403 C274.88562012 200.16528656 274.76879883 200.98068909 274.6484375 201.82080078 C274.54708496 202.53358185 274.44573242 203.24636292 274.34130859 203.98074341 C273.99871135 206.00762396 273.49856368 208.00574528 273 210 C252.87 210.33 232.74 210.66 212 211 C212.33 211.33 212.66 211.66 213 212 C213.63074889 216.74766394 211.9098895 219.25611683 209.375 223.1875 C191.3239493 252.18646713 178.07542296 283.54359654 165 315 C166.07314453 313.90558594 166.07314453 313.90558594 167.16796875 312.7890625 C174.9052902 305.1691349 182.23452849 298.21612804 193.5 297.5625 C202.84990871 298.00849224 208.59172313 304.03540901 215.03125 310.19921875 C217.56434287 312.62377381 220.22336596 314.84143365 222.9375 317.0625 C228.77773253 322.22437521 232.48826013 329.15332206 233 337 C233.0825 338.134375 233.165 339.26875 233.25 340.4375 C233.14330367 349.66673228 230.35318937 359.13028621 228 368 C236.3536015 359.39737515 243.32270442 349.76424626 250.42529297 340.13134766 C251.94067835 338.08029116 253.46742749 336.03823486 255 334 C262.625 334.875 262.625 334.875 266 336 C267.03885976 342.55780224 263.41508906 346.88064925 260 352.125 C259.10414185 353.53168945 259.10414185 353.53168945 258.19018555 354.96679688 C256.47341622 357.65338864 254.73885765 360.32767254 253 363 C252.23503425 364.19490121 251.47059859 365.39014219 250.70703125 366.5859375 C243.41233653 377.80623082 235.19209562 388.27090911 226 398 C225.20851563 398.8559375 224.41703125 399.711875 223.6015625 400.59375 C222.78429688 401.4496875 221.96703125 402.305625 221.125 403.1875 C220.40570312 403.94417969 219.68640625 404.70085937 218.9453125 405.48046875 C211.03149889 412.25024299 202.22385823 416.49082504 192.5625 420.1875 C190.99918945 420.8052832 190.99918945 420.8052832 189.40429688 421.43554688 C165.45057308 430.80616046 165.45057308 430.80616046 159 429 C156.22171677 427.36917033 153.77731327 425.51074439 151.25390625 423.5078125 C147.33807074 420.40678213 143.14046337 417.75375519 138.9375 415.0625 C137.81118164 414.3358313 137.81118164 414.3358313 136.66210938 413.59448242 C132.91141226 411.15764127 132.91141226 411.15764127 129 409 C128.84869629 409.6069873 128.69739258 410.21397461 128.54150391 410.83935547 C126.49040821 418.72584021 123.87530772 426.35548944 121.12890625 434.01953125 C120.36447426 436.15439571 119.60763844 438.29185114 118.8515625 440.4296875 C115.13815752 450.86184248 115.13815752 450.86184248 114 452 C105.7381042 452 101.40760749 448.94197326 95 444 C94.34 443.67 93.68 443.34 93 443 C92.35933594 443.845625 91.71867187 444.69125 91.05859375 445.5625 C80.12610386 459.93473486 67.95819512 475.76828109 49.01171875 479.37890625 C40.29303634 480.06760889 33.97187389 475.63445081 27 471 C26.36884277 470.58298828 25.73768555 470.16597656 25.08740234 469.73632812 C23.19031064 468.46806127 21.31032104 467.17880603 19.4375 465.875 C18.86612305 465.48006348 18.29474609 465.08512695 17.70605469 464.67822266 C10.99963761 459.85015891 6.98354695 454.8445386 5.59375 446.5859375 C3.77589973 431.58867275 6.77977454 417.00714947 12 403 C12.24878906 402.32646484 12.49757813 401.65292969 12.75390625 400.95898438 C18.57471263 385.47095935 25.60496322 369.19912203 37 357 C37.680625 356.26394531 38.36125 355.52789063 39.0625 354.76953125 C44.29411119 349.32984462 49.31893269 344.43434451 57.15478516 343.70727539 C61.93045416 344.07083267 65.27233102 345.58859643 69.5234375 347.68359375 C70.31021881 348.05855484 71.09700012 348.43351593 71.90762329 348.81983948 C74.40302174 350.01314462 76.88877946 351.22520866 79.375 352.4375 C81.06843779 353.24924256 82.76244314 354.0598022 84.45703125 354.86914062 C96.78310282 360.78310282 96.78310282 360.78310282 98 362 C98.3889834 367.33175523 97.44225472 371.45935836 95.375 376.3125 C95.10357178 376.96549072 94.83214355 377.61848145 94.55249023 378.29125977 C86.6615004 396.79167745 71.55322888 412.23081018 52.7265625 419.9296875 C50.56570683 420.71144211 50.56570683 420.71144211 48 423 C44.24623494 432.02529795 43.07470526 445.53997428 46 455 C57.16983945 455 64.65906844 446.5952294 72.125 439.1875 C84.76329271 426.34702202 91.22235452 414.29244614 97.48202515 397.5149231 C119.20384634 339.37948742 143.22870924 281.93127981 168.45800781 225.23730469 C168.75205002 224.5764386 169.04609222 223.91557251 169.3490448 223.23468018 C170.13041018 221.48067378 170.91387148 219.72760148 171.69750977 217.97460938 C172.85153418 215.3390642 173.93146115 212.67134712 175 210 C147.28 210 119.56 210 91 210 C95 203 95 203 97.3125 199.9375 C99.238159 197.15138703 99.238159 197.15138703 98.99609375 194.140625 C97.66668416 189.94907475 95.23515655 188.21542136 91.75 185.8125 C91.09829834 185.34980713 90.44659668 184.88711426 89.77514648 184.41040039 C84.10019225 180.50677355 78.14401973 177.16139287 72.0625 173.9375 C71.18754883 173.47255127 70.31259766 173.00760254 69.41113281 172.52856445 C64.32124254 169.92011688 59.6054969 168.14967897 54 167 C53.72236816 167.72203613 53.44473633 168.44407227 53.15869141 169.18798828 C52.04982994 171.87906842 50.81177632 174.41528613 49.4609375 176.9921875 C48.96625977 177.93827881 48.47158203 178.88437012 47.96191406 179.85913086 C47.1763916 181.35198608 47.1763916 181.35198608 46.375 182.875 C45.84100586 183.89408447 45.30701172 184.91316895 44.75683594 185.96313477 C40.54247752 193.99588438 36.28586823 202.00520734 32 210 C21.44 210 10.88 210 0 210 C0 140.7 0 71.4 0 0 Z M170 335 C157.49674594 350.5243225 146.71674654 375.93109678 146 396 C146.6758165 399.31764465 147.18197338 401.21343594 149.625 403.5625 C153.55081417 404.2856763 156.63935946 402.89759623 160 401 C165.11167365 396.75168831 168.9177249 391.65108082 172.4375 386.0625 C172.90631592 385.32596191 173.37513184 384.58942383 173.8581543 383.83056641 C178.45750084 376.47757594 182.41883739 368.89415409 186 361 C186.28214355 360.38447266 186.56428711 359.76894531 186.85498047 359.13476562 C190.20199328 351.71098471 192.63905419 344.28482046 194.5 336.375 C194.6846582 335.61654785 194.86931641 334.8580957 195.05957031 334.07666016 C195.99930858 329.73693715 196.22028819 326.91550823 194 323 C192.96333108 321.74758747 192.96333108 321.74758747 190.703125 321.8125 C182.66232635 322.37024326 175.21997103 329.33519666 170 335 Z M62 377 C56.89370685 384.23208901 50 395.76509855 50 405 C61.26846333 400.07814245 70.29414756 388.45047173 75.15234375 377.515625 C76.2128775 374.81066752 76.2128775 374.81066752 76 371 C69.24287591 370.17259705 66.21279213 372.01954353 62 377 Z " fill="#29124A" transform="translate(1974,959)"/>
<path d="M0 0 C5.1795491 0.01898278 10.35910561 0.02053401 15.53868413 0.02407622 C25.3092328 0.03333413 35.07967861 0.05786154 44.85018235 0.08812469 C55.98954605 0.12186558 67.12891512 0.13820379 78.26831734 0.153211 C101.14800124 0.18441801 124.02759438 0.23705434 146.90719914 0.30418181 C147.23091573 2.86405402 147.55363884 5.42404499 147.87579656 7.98411345 C147.96697727 8.70432929 148.05815799 9.42454513 148.15210176 10.16658568 C148.80339702 15.3508567 149.35007563 20.53229351 149.75876164 25.74168181 C149.82251988 26.51810027 149.88627812 27.29451873 149.95196843 28.09446502 C150.14858073 30.4974569 150.34051183 32.90079264 150.53219914 35.30418181 C150.66730027 36.96566584 150.80271546 38.62712435 150.93844914 40.28855681 C151.26496864 44.29348186 151.58730092 48.29872268 151.90719914 52.30418181 C147.44615578 50.83602905 143.16392243 49.17785726 138.86032414 47.30418181 C131.07666647 44.66844588 123.38265422 43.99536083 115.21188664 44.00340056 C114.22076879 43.99911544 113.22965093 43.99483031 112.20849919 43.99041533 C110.12272199 43.98470787 108.0369249 43.9841451 105.95114446 43.98850799 C102.81113765 43.99165283 99.67208891 43.96821509 96.53219914 43.94285369 C82.24969605 43.89586945 67.3825354 43.8959087 54.53219914 50.99168181 C53.87284368 51.34053435 53.21348821 51.68938689 52.53415227 52.04881072 C36.81047197 60.62291357 26.74492504 73.61444683 20.80563664 90.42136931 C16.16693499 107.45884363 18.20255645 125.25201525 25.96969914 140.99168181 C35.37397521 157.32859729 49.6088633 167.34704663 67.42673039 173.12058806 C82.22899139 176.72659032 97.5867595 174.79952951 110.71969914 167.17918181 C122.25452283 159.25423744 127.46421379 147.92704832 130.21969914 134.49168181 C130.46122309 133.09793354 130.69567048 131.70279673 130.90719914 130.30418181 C130.24719914 130.63418181 129.58719914 130.96418181 128.90719914 131.30418181 C127.09242407 131.53821223 125.27081519 131.72008264 123.44772649 131.87669158 C122.30669469 131.97671981 121.16566289 132.07674804 119.99005437 132.17980742 C118.1353301 132.33611884 118.1353301 132.33611884 116.24313664 132.49558806 C114.98079198 132.60515334 113.71844731 132.71471862 112.41784978 132.82760406 C109.06108244 133.11821703 105.70404966 133.40528374 102.34683537 133.69065642 C98.9213886 133.9827009 95.49634333 134.27937612 92.07126164 134.57566619 C85.35027038 135.15611945 78.62889109 135.73190272 71.90719914 136.30418181 C72.41418827 130.73351284 72.99487893 125.24202437 74.06344914 119.74558806 C74.28130071 118.61830291 74.49915227 117.49101775 74.72360539 116.32957244 C74.94919133 115.18681853 75.17477727 114.04406463 75.40719914 112.86668181 C75.63278508 111.6968576 75.85837102 110.52703338 76.09079289 109.32175994 C77.76361601 100.73493121 77.76361601 100.73493121 78.90719914 97.30418181 C111.90719914 97.30418181 144.90719914 97.30418181 178.90719914 97.30418181 C177.75816446 115.68873672 177.75816446 115.68873672 176.98337102 123.89793181 C176.89704915 124.83351424 176.81072728 125.76909667 176.7217896 126.73303008 C176.44217672 129.75696916 176.15916089 132.78057786 175.87594914 135.80418181 C175.67781814 137.93689681 175.47986411 140.06962825 175.28207707 142.20237517 C174.87003791 146.63993442 174.45639547 151.07734014 174.04147649 155.51463103 C173.51106384 161.18766471 172.98392683 166.86099683 172.45788121 172.53443694 C172.0505383 176.92522882 171.64187577 181.31589706 171.23277593 185.70652556 C171.03790996 187.79878128 170.84335598 189.89106607 170.64912724 191.98338103 C170.37770475 194.90423763 170.10460186 197.82493235 169.83102727 200.74558806 C169.71254178 202.02527213 169.71254178 202.02527213 169.59166265 203.3308084 C169.51600575 204.1348561 169.44034886 204.9389038 169.36239934 205.76731658 C169.29825086 206.45447249 169.23410237 207.14162841 169.16801 207.84960723 C168.79703607 211.34096182 168.34913883 214.82110473 167.90719914 218.30418181 C140.46361096 218.37443709 113.02003637 218.42725067 85.5763762 218.45961833 C72.83220902 218.47505039 60.0880979 218.49606954 47.34396672 218.53050017 C36.22894407 218.56051501 25.11396205 218.57978338 13.9989 218.5864473 C8.12014939 218.59033916 2.24151496 218.59940839 -3.63719821 218.62137198 C-9.184924 218.64192853 -14.73248718 218.64797738 -20.28024745 218.64350486 C-22.30248536 218.64432157 -24.32472943 218.65017185 -26.34693408 218.66179824 C-59.79125469 218.84444177 -91.05439629 211.19088236 -117.09280086 189.30418181 C-117.94487117 188.63644744 -118.79694148 187.96871306 -119.67483211 187.28074431 C-138.68181872 171.7435307 -149.90516324 145.19620146 -152.46780086 121.30418181 C-154.99964655 92.77180863 -147.70066551 65.11862578 -129.65530086 42.55418181 C-128.15080511 40.79011646 -126.63095242 39.03897973 -125.09280086 37.30418181 C-124.49080867 36.61840056 -123.88881648 35.93261931 -123.26858211 35.22605681 C-90.92678884 0.7094358 -43.86539567 -0.18836138 0 0 Z " fill="#29124A" transform="translate(956.0928008556366,954.6958181858063)"/>
<path d="M0 0 C51.81 0 103.62 0 157 0 C164.86621315 15.7324263 164.86621315 15.7324263 167.515625 21.765625 C167.80881622 22.42985474 168.10200745 23.09408447 168.40408325 23.77844238 C169.03011907 25.19718124 169.65474672 26.61654224 170.27801514 28.03649902 C172.00786134 31.9758775 173.75038337 35.90964753 175.4921875 39.84375 C175.85780792 40.67001892 176.22342834 41.49628784 176.60012817 42.34759521 C180.8054937 51.83898998 185.0885866 61.29500145 189.375 70.75 C190.98583256 74.30461706 192.59646632 77.85932417 194.20703125 81.4140625 C194.60591049 82.29434113 195.00478973 83.17461975 195.41575623 84.08157349 C201.51813366 97.55325793 207.57745277 111.04435569 213.64163208 124.53326416 C216.28001489 130.40122844 218.9224015 136.26737951 221.56640625 142.1328125 C226.05215218 152.08500635 230.52958162 162.04091206 235 172 C235.38446289 172.85613892 235.76892578 173.71227783 236.16503906 174.59436035 C238.46395375 179.71477856 240.75846859 184.83712944 243.04681396 189.96228027 C243.76091332 191.56026203 244.47626967 193.1576827 245.19293213 194.7545166 C246.1764403 196.94675939 247.15525491 199.14103616 248.1328125 201.3359375 C248.57197998 202.31096725 248.57197998 202.31096725 249.02001953 203.30569458 C251 207.77149382 251 207.77149382 251 210 C199.19 210 147.38 210 94 210 C88.39 196.14 82.78 182.28 77 168 C48.95 167.67 20.9 167.34 -8 167 C-8.99 169.97 -8.99 169.97 -10 173 C-10.56383883 174.33493493 -11.15249814 175.65981071 -11.77172852 176.9699707 C-12.10870255 177.6870369 -12.44567657 178.40410309 -12.79286194 179.14289856 C-13.15125656 179.89624985 -13.50965118 180.64960114 -13.87890625 181.42578125 C-14.43710304 182.60807564 -14.43710304 182.60807564 -15.00657654 183.81425476 C-15.78912889 185.46979727 -16.57334331 187.12455505 -17.35913086 188.77856445 C-18.56595701 191.31977943 -19.766754 193.86377896 -20.96679688 196.40820312 C-21.72881343 198.01839638 -22.49117112 199.62842825 -23.25390625 201.23828125 C-23.6143251 202.00175369 -23.97474396 202.76522614 -24.34608459 203.55183411 C-26.88438051 208.88438051 -26.88438051 208.88438051 -28 210 C-29.77991924 210.09370624 -31.56356739 210.11744271 -33.34594727 210.11352539 C-34.4870546 210.11344986 -35.62816193 210.11337433 -36.80384827 210.11329651 C-38.0454924 210.10813522 -39.28713654 210.10297394 -40.56640625 210.09765625 C-42.46204567 210.09553383 -42.46204567 210.09553383 -44.39598083 210.09336853 C-47.76124889 210.08870582 -51.1264499 210.0797148 -54.49169922 210.06866455 C-57.9234967 210.05844846 -61.35530109 210.05387049 -64.78710938 210.04882812 C-71.52475824 210.0377738 -78.26237525 210.0210171 -85 210 C-83.32516187 204.22566518 -80.6493423 199.06261765 -77.94140625 193.72265625 C-77.43761948 192.72028427 -76.9338327 191.71791229 -76.41477966 190.68516541 C-74.80115673 187.47567863 -73.18224756 184.26889961 -71.5625 181.0625 C-69.45673011 176.88817608 -67.35370923 172.71248496 -65.25390625 168.53515625 C-64.46864059 166.97300888 -64.46864059 166.97300888 -63.66751099 165.37930298 C-59.66090976 157.38135419 -55.78229636 149.32731278 -51.94337463 141.24781799 C-47.96632917 132.89006732 -43.84739935 124.60879305 -39.68118286 116.34405518 C-33.7855885 104.64425921 -27.94933801 92.9260944 -22.36035156 81.07617188 C-16.82433643 69.41205442 -10.97415744 57.90003234 -5.16625977 46.36962891 C-3.14076739 42.34476086 -1.12746187 38.31407542 0.87231445 34.27636719 C1.61893137 32.76923229 2.36808394 31.26335065 3.11987305 29.75878906 C4.14993827 27.68889056 5.1634211 25.61174529 6.171875 23.53125 C6.74518555 22.36142578 7.31849609 21.19160156 7.90917969 19.98632812 C9.02407098 16.9341011 9.29465816 15.90569964 8 13 C6.69998973 10.90294327 5.33960831 8.84271327 3.9375 6.8125 C0 1.08963093 0 1.08963093 0 0 Z M37 71 C31.87312891 80.97493951 27.04207194 91.08149623 22.3125 101.25 C21.76634033 102.42079102 21.22018066 103.59158203 20.6574707 104.79785156 C19.86215942 106.51439941 19.86215942 106.51439941 19.05078125 108.265625 C18.34949097 109.77817871 18.34949097 109.77817871 17.6340332 111.32128906 C15.33038775 116.50750297 13.18262358 121.7617034 11 127 C27.17 127 43.34 127 60 127 C59.31811176 123.59055882 58.77505207 121.13326983 57.49707031 118.04272461 C57.19295227 117.30102524 56.88883423 116.55932587 56.57550049 115.79515076 C56.08179962 114.61071129 56.08179962 114.61071129 55.578125 113.40234375 C55.2362616 112.57223282 54.89439819 111.74212189 54.54217529 110.88685608 C53.44900297 108.23530561 52.34958714 105.58639577 51.25 102.9375 C50.52563246 101.18311161 49.80167011 99.42855586 49.078125 97.67382812 C45.40550204 88.77422407 41.71085377 79.88372982 38 71 C37.67 71 37.34 71 37 71 Z " fill="#29124A" transform="translate(1704,959)"/>
<path d="M0 0 C39.09296239 -0.02286486 78.18592391 -0.04049745 117.27889165 -0.05106533 C121.88913416 -0.05231611 126.49937665 -0.05361042 131.10961914 -0.05493164 C132.02747557 -0.05519395 132.94533199 -0.05545626 133.89100225 -0.05572652 C148.77303936 -0.06008354 163.65507263 -0.06797126 178.53710746 -0.0771528 C193.79566949 -0.08648846 209.0542295 -0.09205542 224.31279427 -0.09408849 C233.73599554 -0.0954639 243.15918595 -0.09981546 252.58238388 -0.10791647 C259.03513198 -0.11318285 265.48787443 -0.11480454 271.94062453 -0.11350138 C275.6692715 -0.11285783 279.39789942 -0.11387741 283.12654305 -0.11920547 C287.15932079 -0.1249264 291.19205742 -0.12300118 295.22483826 -0.12025452 C297.01225068 -0.12462378 297.01225068 -0.12462378 298.83577245 -0.12908131 C300.44286269 -0.12609474 300.44286269 -0.12609474 302.0824194 -0.12304783 C303.48073951 -0.12361741 303.48073951 -0.12361741 304.90730852 -0.1241985 C307 0 307 0 308 1 C308.33439899 2.75259143 308.61092679 4.51626858 308.86376953 6.2824707 C309.02708771 7.41066727 309.19040588 8.53886383 309.3586731 9.70124817 C309.5316391 10.93034409 309.7046051 12.15944 309.8828125 13.42578125 C310.06133759 14.68005417 310.23986267 15.93432709 310.42379761 17.22660828 C310.80085963 19.88703398 311.17600583 22.54765609 311.54833984 25.20874023 C312.02561808 28.61624712 312.51371387 32.02210484 313.00473213 35.42765522 C313.47104546 38.67605108 313.92626227 41.92600114 314.3828125 45.17578125 C314.55982697 46.39880447 314.73684143 47.6218277 314.91921997 48.88191223 C315.07623383 50.01956528 315.23324768 51.15721832 315.39501953 52.3293457 C315.53634308 53.33004593 315.67766663 54.33074615 315.82327271 55.36177063 C316 58 316 58 315 62 C271.44 55.07 271.44 55.07 227 48 C227.309375 60.808125 227.61875 73.61625 227.9375 86.8125 C228.12209895 94.54685298 228.30656056 102.28120457 228.48828125 110.015625 C228.51021357 110.94902962 228.53214588 111.88243423 228.55474281 112.84412384 C228.90802003 127.90168334 229.25737641 142.95929826 229.5630188 158.01791382 C229.60333104 159.99809649 229.64452289 161.97826151 229.68673706 163.95840454 C230.01169786 179.31141844 230 194.63740881 230 210 C179.51 210 129.02 210 77 210 C77.59908518 172.25763391 78.21139136 134.51979656 78.99578857 96.78149414 C79.11092034 91.22609672 79.22430794 85.67066364 79.33789062 80.11523438 C79.55699344 69.41012294 79.77784461 58.7050485 80 48 C79.19472366 48.131147 78.38944733 48.26229401 77.55976868 48.39741516 C69.87009325 49.64937855 62.1800975 50.89934896 54.48975849 52.14722919 C50.53865483 52.78842689 46.58766767 53.43032337 42.63696289 54.07397461 C25.4463747 56.87417102 8.25945538 59.65072303 -9 62 C-8.04432472 54.77688902 -7.08347731 47.55447921 -6.11914062 40.33251953 C-5.79212056 37.87889964 -5.46625673 35.42512534 -5.14160156 32.97119141 C-4.67301192 29.43089601 -4.20017819 25.8911886 -3.7265625 22.3515625 C-3.51237167 20.722827 -3.51237167 20.722827 -3.29385376 19.06118774 C-3.15385956 18.02086395 -3.01386536 16.98054016 -2.86962891 15.90869141 C-2.74971588 15.00712311 -2.62980286 14.10555481 -2.5062561 13.17666626 C-2.05826419 10.36559733 -1.53100503 7.59125175 -0.96835899 4.80145836 C-0.78730216 3.90199781 -0.60624533 3.00253726 -0.41970193 2.07582033 C-0.2812003 1.39079962 -0.14269866 0.70577891 0 0 Z " fill="#29124A" transform="translate(1332,959)"/>
<path d="M0 0 C46.2 0 92.4 0 140 0 C140 69.3 140 138.6 140 210 C93.8 210 47.6 210 0 210 C0 140.7 0 71.4 0 0 Z " fill="#29124A" transform="translate(1161,959)"/>
<path d="M0 0 C46.2 0 92.4 0 140 0 C140 69.3 140 138.6 140 210 C93.8 210 47.6 210 0 210 C0 140.7 0 71.4 0 0 Z " fill="#29124A" transform="translate(636,959)"/>
<path d="M0 0 C11.0144033 2.75360082 19.40003416 9.73146663 26.890625 18.078125 C28.38636889 20.66934329 28.44509328 22.03707512 28 25 C26.5234375 27.85546875 26.5234375 27.85546875 24.375 31.1875 C6.3239493 60.18646713 -6.92457704 91.54359654 -20 123 C-19.28457031 122.27039062 -18.56914062 121.54078125 -17.83203125 120.7890625 C-10.0947098 113.1691349 -2.76547151 106.21612804 8.5 105.5625 C17.84990871 106.00849224 23.59172313 112.03540901 30.03125 118.19921875 C32.56434287 120.62377381 35.22336596 122.84143365 37.9375 125.0625 C43.77773253 130.22437521 47.48826013 137.15332206 48 145 C48.0825 146.134375 48.165 147.26875 48.25 148.4375 C48.14330367 157.66673228 45.35318937 167.13028621 43 176 C51.3536015 167.39737515 58.32270442 157.76424626 65.42529297 148.13134766 C66.94067835 146.08029116 68.46742749 144.03823486 70 142 C77.625 142.875 77.625 142.875 81 144 C82.03885976 150.55780224 78.41508906 154.88064925 75 160.125 C74.40276123 161.06279297 73.80552246 162.00058594 73.19018555 162.96679688 C71.47341622 165.65338864 69.73885765 168.32767254 68 171 C67.23503425 172.19490121 66.47059859 173.39014219 65.70703125 174.5859375 C58.41233653 185.80623082 50.19209562 196.27090911 41 206 C39.81277344 207.28390625 39.81277344 207.28390625 38.6015625 208.59375 C37.78429688 209.4496875 36.96703125 210.305625 36.125 211.1875 C35.04605469 212.32251953 35.04605469 212.32251953 33.9453125 213.48046875 C26.03149889 220.25024299 17.22385823 224.49082504 7.5625 228.1875 C6.52029297 228.59935547 5.47808594 229.01121094 4.40429688 229.43554688 C-19.54942692 238.80616046 -19.54942692 238.80616046 -26 237 C-28.77828323 235.36917033 -31.22268673 233.51074439 -33.74609375 231.5078125 C-37.66192926 228.40678213 -41.85953663 225.75375519 -46.0625 223.0625 C-46.81337891 222.5780542 -47.56425781 222.0936084 -48.33789062 221.59448242 C-52.08858774 219.15764127 -52.08858774 219.15764127 -56 217 C-56.15130371 217.6069873 -56.30260742 218.21397461 -56.45849609 218.83935547 C-58.50959179 226.72584021 -61.12469228 234.35548944 -63.87109375 242.01953125 C-64.63552574 244.15439571 -65.39236156 246.29185114 -66.1484375 248.4296875 C-69.86184248 258.86184248 -69.86184248 258.86184248 -71 260 C-79.2618958 260 -83.59239251 256.94197326 -90 252 C-90.66 251.67 -91.32 251.34 -92 251 C-92.64066406 251.845625 -93.28132813 252.69125 -93.94140625 253.5625 C-104.87389614 267.93473486 -117.04180488 283.76828109 -135.98828125 287.37890625 C-144.70696366 288.06760889 -151.02812611 283.63445081 -158 279 C-158.63115723 278.58298828 -159.26231445 278.16597656 -159.91259766 277.73632812 C-161.80968936 276.46806127 -163.68967896 275.17880603 -165.5625 273.875 C-166.13387695 273.48006348 -166.70525391 273.08512695 -167.29394531 272.67822266 C-174.00036239 267.85015891 -178.01645305 262.8445386 -179.40625 254.5859375 C-181.22410027 239.58867275 -178.22022546 225.00714947 -173 211 C-172.75121094 210.32646484 -172.50242187 209.65292969 -172.24609375 208.95898438 C-166.42528737 193.47095935 -159.39503678 177.19912203 -148 165 C-147.319375 164.26394531 -146.63875 163.52789063 -145.9375 162.76953125 C-140.70588881 157.32984462 -135.68106731 152.43434451 -127.84521484 151.70727539 C-123.06954584 152.07083267 -119.72766898 153.58859643 -115.4765625 155.68359375 C-114.68978119 156.05855484 -113.90299988 156.43351593 -113.09237671 156.81983948 C-110.59697826 158.01314462 -108.11122054 159.22520866 -105.625 160.4375 C-103.93156221 161.24924256 -102.23755686 162.0598022 -100.54296875 162.86914062 C-88.21689718 168.78310282 -88.21689718 168.78310282 -87 170 C-86.6110166 175.33175523 -87.55774528 179.45935836 -89.625 184.3125 C-89.89642822 184.96549072 -90.16785645 185.61848145 -90.44750977 186.29125977 C-98.3384996 204.79167745 -113.44677112 220.23081018 -132.2734375 227.9296875 C-134.43429317 228.71144211 -134.43429317 228.71144211 -137 231 C-140.75376506 240.02529795 -141.92529474 253.53997428 -139 263 C-127.83016055 263 -120.34093156 254.5952294 -112.875 247.1875 C-100.23670729 234.34702202 -93.77764548 222.29244614 -87.51797485 205.5149231 C-62.92606817 139.69810249 -36.20734448 74.03617668 -6.1875 10.5 C-5.7845874 9.64470703 -5.3816748 8.78941406 -4.96655273 7.90820312 C-4.59989502 7.14443359 -4.2332373 6.38066406 -3.85546875 5.59375 C-3.54246826 4.94083984 -3.22946777 4.28792969 -2.90698242 3.61523438 C-2 2 -2 2 0 0 Z M-15 143 C-27.50325406 158.5243225 -38.28325346 183.93109678 -39 204 C-38.3241835 207.31764465 -37.81802662 209.21343594 -35.375 211.5625 C-31.44918583 212.2856763 -28.36064054 210.89759623 -25 209 C-19.88832635 204.75168831 -16.0822751 199.65108082 -12.5625 194.0625 C-12.09368408 193.32596191 -11.62486816 192.58942383 -11.1418457 191.83056641 C-6.54249916 184.47757594 -2.58116261 176.89415409 1 169 C1.28214355 168.38447266 1.56428711 167.76894531 1.85498047 167.13476562 C5.20199328 159.71098471 7.63905419 152.28482046 9.5 144.375 C9.6846582 143.61654785 9.86931641 142.8580957 10.05957031 142.07666016 C10.99930858 137.73693715 11.22028819 134.91550823 9 131 C7.96333108 129.74758747 7.96333108 129.74758747 5.703125 129.8125 C-2.33767365 130.37024326 -9.78002897 137.33519666 -15 143 Z M-123 185 C-128.10629315 192.23208901 -135 203.76509855 -135 213 C-123.73153667 208.07814245 -114.70585244 196.45047173 -109.84765625 185.515625 C-108.7871225 182.81066752 -108.7871225 182.81066752 -109 179 C-115.75712409 178.17259705 -118.78720787 180.01954353 -123 185 Z " fill="#502A59" transform="translate(2159,1151)"/>
</svg>
