<?xml version="1.0" encoding="UTF-8"?>
<svg version="1.1" xmlns="http://www.w3.org/2000/svg" width="2500" height="2500">
<path d="M0 0 C14.02563493 4.61087387 28.27763428 23.23069645 36.9140625 34.70703125 C38.63652247 36.94622921 40.49832263 38.9667143 42.4296875 41.02734375 C48.11582471 47.31261669 56.70548124 57.16808084 57.98046875 65.68359375 C57.5546875 68.83984375 57.5546875 68.83984375 55.16015625 71.12109375 C54.03366781 71.88008256 52.89298134 72.61823877 51.7421875 73.33984375 C50.44904458 74.20613373 49.1574604 75.0747536 47.8671875 75.9453125 C47.16980469 76.40856934 46.47242188 76.87182617 45.75390625 77.34912109 C41.8354646 80.0052051 38.04485893 82.83417143 34.2421875 85.65234375 C33.43982666 86.2443457 32.63746582 86.83634766 31.81079102 87.44628906 C24.29521049 93.00268944 16.86608858 98.66877368 9.46240234 104.37304688 C7.70167756 105.72682657 5.93611517 107.07390488 4.16796875 108.41796875 C-3.24895482 114.07417123 -10.50407024 119.90722516 -17.7265625 125.80859375 C-20.67642641 128.21834174 -23.64711328 130.59954956 -26.6328125 132.96484375 C-31.01506363 136.45740966 -35.28918756 140.06846446 -39.55493164 143.70141602 C-43.02222958 146.65058265 -46.52844344 149.54257501 -50.0703125 152.40234375 C-54.77885888 156.23059668 -59.24499011 160.27641173 -63.7109375 164.3828125 C-67.18858935 167.50773109 -70.8055516 170.43344732 -74.44140625 173.37109375 C-79.24577992 177.31955169 -83.91664262 181.4195919 -88.60546875 185.50390625 C-91.69614641 188.19505538 -94.80670061 190.86168517 -97.92602539 193.51953125 C-103.71180833 198.45026057 -109.39227016 203.46794873 -114.99609375 208.60546875 C-117.77031122 211.13633381 -120.59238371 213.60623766 -123.42578125 216.0703125 C-126.60815476 218.85873649 -129.74580676 221.69630204 -132.88671875 224.53125 C-134.53783583 226.02103655 -136.19131394 227.50821252 -137.84765625 228.9921875 C-143.15173393 233.74608532 -148.39901667 238.55730496 -153.62597656 243.39550781 C-157.69106659 247.15434032 -161.79499021 250.86718861 -165.91796875 254.5625 C-168.77613453 257.1379415 -171.61241511 259.73670139 -174.4453125 262.33984375 C-178.89593228 266.4290492 -183.37609367 270.4835349 -187.875 274.51953125 C-190.78959697 277.15064158 -193.68070474 279.8063685 -196.5703125 282.46484375 C-199.80744341 285.44207015 -203.05669106 288.39937341 -206.3828125 291.27734375 C-211.61577552 295.81834472 -216.66894261 300.55737476 -221.74853516 305.26806641 C-223.90567275 307.26628969 -226.06839563 309.25840428 -228.23120117 311.25048828 C-233.60687353 316.20413444 -238.96864378 321.17278013 -244.3203125 326.15234375 C-244.92665527 326.7148584 -245.53299805 327.27737305 -246.15771484 327.85693359 C-249.79160028 331.24357524 -253.3354237 334.70102572 -256.81665039 338.24462891 C-258.48634908 339.88003757 -260.22114933 341.3963687 -262.0078125 342.90234375 C-266.64267662 346.88670062 -270.89736529 351.23707871 -275.17016602 355.60180664 C-278.03351972 358.50761063 -280.9302591 361.29094672 -284.0390625 363.93359375 C-290.34460068 369.37652459 -296.09266181 375.42052332 -301.9453125 381.33984375 C-304.30686103 383.72829357 -306.6719155 386.1131937 -309.0390625 388.49609375 C-309.82537048 389.29484924 -309.82537048 389.29484924 -310.62756348 390.10974121 C-313.43214424 392.93234091 -316.30443775 395.61627815 -319.31835938 398.21508789 C-323.70482787 402.01229708 -327.79643171 406.06418727 -331.8828125 410.1796875 C-332.64835449 410.94664444 -333.41389648 411.71360138 -334.20263672 412.50379944 C-336.61924447 414.92595256 -339.03232976 417.35157987 -341.4453125 419.77734375 C-343.09481936 421.43187268 -344.74455679 423.08617177 -346.39453125 424.74023438 C-350.41412621 428.77078577 -354.43084419 432.80418647 -358.4453125 436.83984375 C-350.6900682 432.45964981 -342.99662535 428.04144608 -335.5078125 423.21484375 C-328.51576506 418.75581564 -321.47382139 414.38972376 -314.3828125 410.08984375 C-306.15483509 405.10040598 -297.94785084 400.0788254 -289.7578125 395.02734375 C-277.19946866 387.28695141 -264.59386094 379.62627289 -251.97753906 371.98095703 C-246.71447799 368.79125058 -241.45456217 365.59636478 -236.19439697 362.40188599 C-234.44209569 361.3378905 -232.68958544 360.27424002 -230.93701172 359.21069336 C-225.72165665 356.0455208 -220.50722203 352.87889008 -215.29797363 349.70367432 C-201.71879383 341.42691007 -188.09424405 333.23373537 -174.40841675 325.13439941 C-164.98591302 319.55716631 -155.60432805 313.9184202 -146.2578125 308.21484375 C-135.45830566 301.62543171 -124.58115002 295.17803486 -113.6496582 288.81005859 C-107.13190382 285.01097749 -100.64178555 281.17108498 -94.17781067 277.28155518 C-89.70229211 274.58976794 -85.21468401 271.91925569 -80.71875 269.26171875 C-68.20670632 261.86276748 -55.71098205 254.45344482 -43.38061523 246.75390625 C-35.29421593 241.71598557 -27.12274004 236.82289998 -18.94714355 231.93182373 C-10.37224656 226.80172099 -1.81525925 221.6442786 6.71798706 216.44519043 C17.96351261 209.59389875 29.26318967 202.83939546 40.59515381 196.1321106 C49.95116633 190.59298229 59.27141238 184.99998921 68.5546875 179.33984375 C79.18797595 172.85657588 89.8783548 166.47507033 100.59570312 160.13183594 C109.95152781 154.59279304 119.27158762 148.99988236 128.5546875 143.33984375 C138.51289287 137.26818368 148.51781005 131.28052396 158.5546875 125.33984375 C169.89845294 118.62505082 181.1957167 111.83955771 192.45336914 104.98144531 C200.11278321 100.31666878 207.79490511 95.69182841 215.4921875 91.08984375 C222.90861561 86.65406506 230.28582056 82.16473217 237.6171875 77.58984375 C250.55657136 69.52550945 263.69880314 61.80019686 276.82470703 54.04492188 C280.07970474 52.12148118 283.33147342 50.19265541 286.58203125 48.26171875 C299.47956658 40.60662364 312.45367587 33.08769623 325.45947266 25.61816406 C328.34041287 23.96295279 331.21920938 22.30407319 334.09765625 20.64453125 C338.35278502 18.19500295 342.61849147 15.76492085 346.89257812 13.34863281 C348.7690337 12.28512442 350.64245869 11.21626007 352.51367188 10.14355469 C355.51939235 8.42366799 358.53560653 6.72364436 361.5546875 5.02734375 C362.48120117 4.49278564 363.40771484 3.95822754 364.36230469 3.4074707 C365.23016602 2.9249585 366.09802734 2.44244629 366.9921875 1.9453125 C367.75402344 1.51371826 368.51585937 1.08212402 369.30078125 0.63745117 C372.12637875 -0.3624651 373.71423054 -0.01249936 376.5546875 0.83984375 C378.81640625 2.046875 378.81640625 2.046875 381.2421875 3.65234375 C382.67111328 4.59207031 382.67111328 4.59207031 384.12890625 5.55078125 C384.66435059 5.90881836 385.19979492 6.26685547 385.75146484 6.63574219 C387.7903305 7.99719431 389.83837025 9.34426606 391.88671875 10.69140625 C400.25824576 16.21433166 408.51637113 21.83878663 416.5546875 27.83984375 C417.83296091 28.77524872 419.11163763 29.71010271 420.390625 30.64453125 C427.6549915 35.98324772 434.58548534 41.42676028 441.1640625 47.6015625 C443.32724252 49.62689281 445.54231361 51.55218796 447.8046875 53.46484375 C450.53053222 55.85771779 453.12404299 58.32909334 455.6171875 60.96484375 C456.50083984 61.89683594 456.50083984 61.89683594 457.40234375 62.84765625 C458.5546875 64.83984375 458.5546875 64.83984375 458.64453125 67.13671875 C456.99694705 71.22319999 454.12390756 73.86392915 451.0546875 76.96484375 C449.76691709 78.30217514 448.48176459 79.64203226 447.19921875 80.984375 C446.57225098 81.64002441 445.9452832 82.29567383 445.29931641 82.97119141 C442.22236566 86.26687865 439.44305227 89.77529117 436.62890625 93.296875 C434.51381154 95.88995722 432.30950654 98.36769275 430.0546875 100.83984375 C425.35000735 106.01499191 420.95032407 111.40187215 416.5546875 116.83984375 C415.54385983 118.07104462 414.53208701 119.30146993 413.51953125 120.53125 C406.45088289 129.13646832 399.65609767 137.90368467 393.02978516 146.85302734 C391.08445275 149.47320528 389.12161126 152.07999861 387.15869141 154.68701172 C375.4355737 170.26494133 363.88894409 185.97667703 352.5546875 201.83984375 C352.03535645 202.5659082 351.51602539 203.29197266 350.98095703 204.04003906 C340.54689377 218.67290105 330.62318093 233.64488207 320.68725586 248.61761475 C317.66527884 253.17094932 314.63534497 257.71885221 311.59765625 262.26171875 C281.18458575 307.75176474 252.12209744 354.08832799 224.57714844 401.36962891 C222.60711787 404.75113233 220.63205422 408.12967897 218.65625 411.5078125 C212.56840808 421.92133123 206.50355968 432.34618102 200.5546875 442.83984375 C208.15948466 436.83360599 215.28286407 430.45808813 222.34765625 423.8359375 C226.49481936 419.94954207 230.76381129 416.22375428 235.08496094 412.53271484 C236.86688896 411.01050308 238.64837351 409.48777401 240.4296875 407.96484375 C241.03852783 407.44486816 241.64736816 406.92489258 242.2746582 406.38916016 C245.81169011 403.36039599 249.29895235 400.28804912 252.7421875 397.15234375 C256.0555183 394.14169896 259.44410679 391.27419197 262.9296875 388.46484375 C266.94292861 385.22033615 270.77904704 381.85257695 274.5546875 378.33984375 C279.1871985 374.02990605 283.975907 369.98923435 288.90625 366.01953125 C291.52743869 363.86226976 294.04623031 361.62673375 296.5546875 359.33984375 C300.85460541 355.42093123 305.31388297 351.74813506 309.8359375 348.08984375 C312.47616479 345.90482806 315.0219847 343.64812984 317.5546875 341.33984375 C320.87458236 338.31701954 324.25232862 335.41472214 327.7421875 332.58984375 C332.19320942 328.9851429 336.54667355 325.28614108 340.8671875 321.52734375 C341.81742798 320.70073242 341.81742798 320.70073242 342.78686523 319.85742188 C344.07300405 318.7382189 345.35905538 317.61891538 346.64501953 316.49951172 C353.68741141 310.37905915 360.74471551 304.27954038 367.9921875 298.40234375 C373.04322818 294.30069104 377.95597146 290.05393364 382.86254883 285.78198242 C388.51404317 280.86387171 394.22339546 276.01792719 399.953125 271.19140625 C401.59397486 269.80668905 403.23107555 268.41765484 404.8671875 267.02734375 C409.85206963 262.79356805 414.84884572 258.58363265 419.9296875 254.46484375 C425.05281817 250.29763251 430.03063678 245.97671918 435.00732422 241.63720703 C438.64187953 238.47531932 442.30980618 235.37141434 446.0546875 232.33984375 C451.08897022 228.26162659 455.97979458 224.03367317 460.86499023 219.77954102 C465.44584839 215.79268042 470.06219037 211.85165295 474.70605469 207.93847656 C478.71852934 204.55502427 482.70179138 201.13884191 486.6796875 197.71484375 C490.74089626 194.22160519 494.82987721 190.77535668 498.9921875 187.40234375 C505.33745631 182.24797583 511.47978198 176.8662161 517.64501953 171.49951172 C524.68741141 165.37905915 531.74471551 159.27954038 538.9921875 153.40234375 C544.04322818 149.30069104 548.95597146 145.05393364 553.86254883 140.78198242 C559.51713281 135.86118301 565.22932079 131.01210654 570.96191406 126.18261719 C573.11893566 124.36415937 575.27245933 122.54158606 577.42578125 120.71875 C579.04908542 119.34458604 580.67297868 117.97112037 582.296875 116.59765625 C584.49166892 114.74072598 586.68411721 112.88107406 588.875 111.01953125 C593.8799173 106.77018454 598.89652375 102.54303684 603.9921875 98.40234375 C608.23861132 94.94710224 612.40765044 91.41286541 616.5546875 87.83984375 C621.56788238 83.52055419 626.6400607 79.28887256 631.77734375 75.1171875 C634.89865117 72.55780321 637.9791878 69.95390584 641.0546875 67.33984375 C645.90422801 63.21876583 650.80629714 59.16992892 655.7421875 55.15234375 C658.87268662 52.57837781 661.9663216 49.96404909 665.0546875 47.33984375 C669.82876597 43.28550011 674.64348365 39.28762863 679.5 35.33203125 C683.23622733 32.28380486 686.95810283 29.21841486 690.6796875 26.15234375 C691.39729248 25.56227539 692.11489746 24.97220703 692.85424805 24.36425781 C696.62968519 21.25827187 700.39501108 18.14114583 704.14453125 15.00390625 C705.26867432 14.06744263 705.26867432 14.06744263 706.41552734 13.11206055 C707.83713573 11.92738689 709.25566464 10.73900351 710.67041016 9.54614258 C720.04198645 1.75496638 720.04198645 1.75496638 724.5546875 -0.16015625 C734.49890727 1.38735922 743.36672878 16.31530017 749.15917969 23.99121094 C750.08451695 25.21700761 751.01481701 26.4390747 751.95019531 27.65722656 C773.29433899 55.46294702 773.29433899 55.46294702 773.10009766 66.80664062 C772.17059664 70.27167396 769.73165995 71.42667704 766.76708984 73.19824219 C765.93387207 73.6574707 765.1006543 74.11669922 764.2421875 74.58984375 C762.47744564 75.63080051 760.71313378 76.67248653 758.94921875 77.71484375 C758.04510254 78.235625 757.14098633 78.75640625 756.20947266 79.29296875 C752.21530445 81.62026779 748.32572627 84.10298368 744.4296875 86.58984375 C742.84921653 87.58895023 741.26847903 88.58763517 739.6875 89.5859375 C722.8087787 100.27491212 706.02335957 111.10441304 689.30517578 122.04248047 C686.72279531 123.72999023 684.13753173 125.41294881 681.55078125 127.09375 C653.05082541 145.61899465 624.66729473 164.32399169 596.4921875 183.33984375 C595.62074097 183.92791809 594.74929443 184.51599243 593.85144043 185.12188721 C582.42288965 192.83831578 571.02802517 200.60326185 559.65441895 208.40042114 C556.91269731 210.27994536 554.17003103 212.15808924 551.42736816 214.03623962 C541.41911187 220.89814486 531.48380959 227.86413194 521.5546875 234.83984375 C520.43827881 235.62343262 520.43827881 235.62343262 519.29931641 236.42285156 C509.75342036 243.12588536 500.2721323 249.91355121 490.82421875 256.75390625 C487.07853245 259.46454541 483.32023525 262.15689098 479.5546875 264.83984375 C459.24219535 279.32604392 439.12773024 294.05578202 419.30859375 309.2109375 C415.57276864 312.06688231 411.82196865 314.90055071 408.0546875 317.71484375 C402.39140238 321.94824979 396.78819162 326.25756622 391.19140625 330.578125 C389.57491954 331.82424721 387.95591074 333.06700842 386.3359375 334.30859375 C374.16133976 343.64208208 362.1359486 353.14204827 350.24609375 362.8359375 C347.25825692 365.27100554 344.25621717 367.68721788 341.2421875 370.08984375 C336.9097472 373.54565315 332.61637822 377.04729246 328.33203125 380.5625 C326.51447406 382.05284577 324.69426002 383.53995869 322.87109375 385.0234375 C317.32298682 389.54083661 311.8374678 394.12403754 306.38671875 398.7578125 C303.0165641 401.61806195 299.6146034 404.43225609 296.1796875 407.21484375 C290.47953974 411.85603808 284.94048123 416.67258268 279.3984375 421.5 C275.69980951 424.7203894 271.97309197 427.90697019 268.2421875 431.08984375 C264.23109494 434.5141098 260.26813044 437.9771165 256.3671875 441.52734375 C252.95647234 444.62952383 249.4573499 447.57222649 245.8671875 450.46484375 C242.08421339 453.5252273 238.59227395 456.6827969 235.2109375 460.17578125 C232.86917417 462.52859063 230.36011489 464.66461045 227.84765625 466.83203125 C225.08563001 469.25056871 222.38065895 471.72870289 219.6796875 474.21484375 C216.01109488 477.59070513 212.33046018 480.95049294 208.6171875 484.27734375 C195.48260538 496.0754978 182.27090869 507.95979983 169.8671875 520.52734375 C164.26251113 526.15660203 164.26251113 526.15660203 161.5546875 527.83984375 C151.16382399 526.5798221 143.82495297 519.7639061 136.5546875 512.83984375 C135.16544303 511.62394082 133.77006417 510.41499257 132.3671875 509.21484375 C123.2167616 501.19907066 115.43068273 492.17243457 108.4296875 482.21484375 C107.55957031 480.98894531 107.55957031 480.98894531 106.671875 479.73828125 C104.57965743 474.31022029 105.91546727 469.03079185 108.05078125 463.76171875 C108.68426375 462.36482145 109.33210279 460.97436905 109.9921875 459.58984375 C110.34490723 458.82534912 110.69762695 458.06085449 111.06103516 457.27319336 C112.21254973 454.78909743 113.38336412 452.31465206 114.5546875 449.83984375 C115.35609892 448.11748058 116.15687268 446.39482057 116.95703125 444.671875 C121.62077456 434.69406561 126.54885169 424.88939381 131.73046875 415.171875 C133.88561183 411.12345788 136.00002598 407.05500085 138.09765625 402.9765625 C138.40794769 402.37329132 138.71823914 401.77002014 139.03793335 401.14846802 C139.50980576 400.23096268 139.50980576 400.23096268 139.99121094 399.29492188 C146.46653496 386.70460551 153.07121313 374.19744292 159.91796875 361.80419922 C161.41477378 359.09324954 162.90711617 356.37988594 164.39781189 353.66557312 C175.90214021 332.71982569 187.64476592 311.91598439 199.51605225 291.17608643 C206.02632212 279.79894972 212.44501405 268.37177568 218.83251953 256.92529297 C221.7567402 251.68623699 224.68650573 246.45028756 227.6171875 241.21484375 C228.19742676 240.1781958 228.77766602 239.14154785 229.37548828 238.07348633 C233.78287775 230.20490918 238.21734315 222.35189585 242.66040039 214.50341797 C246.64527052 207.46008312 250.60449293 200.40267612 254.5546875 193.33984375 C266.07410769 172.75346364 277.73549395 152.25569682 289.5546875 131.83984375 C290.68622209 129.88412857 291.81773354 127.9284 292.94921875 125.97265625 C295.48290797 121.59420111 298.01822451 117.21669257 300.5546875 112.83984375 C286.24921045 120.17830886 271.96173997 127.53329985 257.87207031 135.28051758 C251.09890517 139.00427361 244.29673754 142.6715646 237.48010254 146.31500244 C219.33961839 156.0112874 201.21454212 165.71663681 183.33862305 175.89501953 C176.13320483 179.98350439 168.85964035 183.9323928 161.5546875 187.83984375 C152.44877083 192.71238442 143.42041696 197.69867737 134.44482422 202.80688477 C126.7249235 207.19496242 118.95939408 211.49666596 111.1796875 215.77734375 C92.79295879 225.90188046 74.45944361 236.09512397 56.36206055 246.73095703 C48.93430285 251.07900195 41.41133121 255.22090277 33.83642578 259.30566406 C26.03299045 263.53316434 18.37611856 267.98970813 10.7265625 272.48828125 C3.5527663 276.69838559 -3.67659795 280.79607701 -10.9453125 284.83984375 C-21.1554433 290.52490416 -31.26608377 296.36400402 -41.34765625 302.2734375 C-47.69577913 305.99319315 -54.06896435 309.66874218 -60.4453125 313.33984375 C-71.82033401 319.89276255 -83.16561047 326.49540785 -94.49951172 333.11914062 C-97.41925569 334.82462343 -100.3402441 336.52795252 -103.26171875 338.23046875 C-125.4976409 351.18905355 -147.70466658 364.19626064 -169.85205078 377.30566406 C-172.42259856 378.82640613 -174.9942879 380.3451973 -177.56640625 381.86328125 C-189.69795808 389.02411659 -201.81542458 396.20851279 -213.92626953 403.40429688 C-215.31021768 404.22656868 -216.69416952 405.04883428 -218.078125 405.87109375 C-218.76866974 406.28137817 -219.45921448 406.6916626 -220.17068481 407.11437988 C-224.98634203 409.97492753 -229.80504922 412.830288 -234.625 415.68359375 C-249.84477428 424.69657138 -265.00977939 433.79213556 -280.1171875 442.9921875 C-285.54640827 446.29752952 -290.99055066 449.57686764 -296.4453125 452.83984375 C-307.3165017 459.34639193 -318.14123784 465.92925119 -328.96733093 472.51042175 C-333.7898718 475.44198176 -338.61401853 478.37088875 -343.43867493 481.29896545 C-348.67687648 484.47804629 -353.91427066 487.65845461 -359.15136719 490.83935547 C-361.2898786 492.13812233 -363.42854165 493.43663955 -365.56738281 494.73486328 C-389.09490771 509.01697903 -412.53995334 523.43136316 -435.62353516 538.42333984 C-440.85939663 541.82167867 -446.11374438 545.19021825 -451.37548828 548.54833984 C-454.58735587 550.60073452 -457.79364151 552.66166866 -461 554.72265625 C-465.21034671 557.42485703 -469.44430077 560.08198589 -473.703125 562.70703125 C-485.28073003 569.92335647 -494.87682391 577.16623704 -503.4453125 587.83984375 C-505.4253125 587.17984375 -507.4053125 586.51984375 -509.4453125 585.83984375 C-510.1053125 586.49984375 -510.7653125 587.15984375 -511.4453125 587.83984375 C-513.8828125 587.77734375 -513.8828125 587.77734375 -516.4453125 586.83984375 C-519.0014895 583.90497386 -519.56172431 581.2569905 -520.0703125 577.52734375 C-520.97163185 572.35823879 -523.14123205 568.43233057 -525.7578125 563.96484375 C-538.08097362 542.86198554 -538.08097362 542.86198554 -536.4453125 532.83984375 C-534.40034966 528.9171163 -531.50852987 526.00101284 -528.4453125 522.83984375 C-527.40069822 521.70974879 -526.35921203 520.57675702 -525.3203125 519.44140625 C-522.3606743 516.22209804 -519.36366649 513.04003708 -516.35693359 509.86474609 C-514.41555979 507.80832792 -512.48554237 505.74181104 -510.55859375 503.671875 C-504.41390722 497.07618101 -498.25760607 490.5271433 -491.7890625 484.24609375 C-489.90651298 482.31334291 -488.16329402 480.35781425 -486.4140625 478.30859375 C-480.90662585 471.96113991 -474.81940329 466.15795897 -468.84277344 460.2578125 C-467.27063035 458.70398377 -465.70168166 457.14697698 -464.1328125 455.58984375 C-462.74642578 454.22085938 -462.74642578 454.22085938 -461.33203125 452.82421875 C-459.23059634 450.70007926 -457.26949662 448.4935844 -455.328125 446.22265625 C-450.89412216 441.10905036 -446.09016135 436.37241198 -441.28897095 431.6083374 C-439.59538388 429.92770135 -437.90510473 428.24379746 -436.21557617 426.55908203 C-432.02170232 422.37846364 -427.82235851 418.20335395 -423.62316895 414.02807617 C-420.06323419 410.48798658 -416.50543429 406.94577653 -412.9503479 403.40081787 C-411.29798718 401.75486269 -409.64260785 400.1119873 -407.98706055 398.46923828 C-406.95867126 397.44448681 -405.93042508 396.41959169 -404.90234375 395.39453125 C-404.01522705 394.51265137 -403.12811035 393.63077148 -402.21411133 392.72216797 C-400.20176213 390.62730908 -398.31250825 388.53371835 -396.43199158 386.32850647 C-391.00298508 380.07590497 -385.05844168 374.3135884 -379.20141602 368.46655273 C-377.86342046 367.12720023 -376.52563731 365.7876355 -375.18804932 364.44787598 C-371.57260401 360.82789127 -367.95402606 357.21105354 -364.3347218 353.59492755 C-360.53731455 349.80006198 -356.74235906 346.00274584 -352.94700623 342.20582581 C-346.57445954 335.83146271 -340.19981396 329.45920432 -333.82397461 323.08813477 C-326.46544605 315.7350478 -319.11052673 308.37836545 -311.75747162 301.01980537 C-305.43044099 294.68822859 -299.10145345 288.35861288 -292.77084297 282.03061539 C-288.99587334 278.25720027 -285.22157185 274.48312351 -281.44903755 270.70727348 C-277.90132709 267.15666247 -274.35115647 263.60852938 -270.79911804 260.06224823 C-269.50027044 258.76471654 -268.20226125 257.46634491 -266.90517998 256.1670475 C-261.10802367 250.36090455 -255.34223276 244.59212219 -249.09498501 239.26478672 C-246.60739928 237.11607673 -244.29890869 234.80513485 -241.98242188 232.47460938 C-241.49667191 231.98739914 -241.01092194 231.5001889 -240.51045227 230.99821472 C-239.47216859 229.95617082 -238.43503947 228.91297539 -237.39900208 227.86869812 C-235.75197367 226.20871316 -234.10167298 224.5520414 -232.45056152 222.89611816 C-228.94596611 219.38018724 -225.44533695 215.86032422 -221.9453125 212.33984375 C-217.88412242 208.2549179 -213.82124956 204.17169482 -209.75410461 200.09269714 C-208.14138667 198.47357604 -206.53175032 196.85143591 -204.92224121 195.22912598 C-196.80024705 187.06700435 -196.80024705 187.06700435 -192.63671875 183.53125 C-186.70761465 178.45537968 -181.30443682 172.807979 -175.80625916 167.2759552 C-173.68873162 165.14553249 -171.567981 163.01836453 -169.44641113 160.89196777 C-164.94321602 156.37740772 -160.44396987 151.85892499 -155.9453125 147.33984375 C-150.72761449 142.09845743 -145.50826294 136.85873998 -140.28465271 131.62324524 C-138.20660908 129.53877197 -136.13162715 127.45128454 -134.0567627 125.36364746 C-128.5574064 119.84318343 -123.09206048 114.36283482 -117.14709473 109.31677246 C-114.07222725 106.64818186 -111.24006483 103.73729509 -108.3828125 100.83984375 C-107.74722412 100.20046875 -107.11163574 99.56109375 -106.45678711 98.90234375 C-104.450476 96.88395978 -102.44747249 94.86234499 -100.4453125 92.83984375 C-85.27354175 77.51393309 -85.27354175 77.51393309 -79.19921875 72.37109375 C-75.77141327 69.37844398 -72.62995267 66.08668392 -69.4453125 62.83984375 C-64.90548992 58.21135276 -60.29544412 53.78607529 -55.3828125 49.5546875 C-52.26027292 46.79098816 -49.36111605 43.81831729 -46.4453125 40.83984375 C-42.30267502 36.64913769 -38.13591323 32.61293747 -33.6328125 28.80859375 C-30.4470908 25.94144422 -27.45965776 22.88535421 -24.4453125 19.83984375 C-20.14994273 15.50426683 -15.8628468 11.23124001 -11.1796875 7.30859375 C-9.94714766 6.26482127 -8.7522397 5.17589166 -7.5859375 4.05859375 C-6.68101562 3.2078125 -6.68101562 3.2078125 -5.7578125 2.33984375 C-5.23832031 1.83453125 -4.71882813 1.32921875 -4.18359375 0.80859375 C-2.4453125 -0.16015625 -2.4453125 -0.16015625 0 0 Z " fill="#512A59" transform="translate(1333.4453125,973.16015625)"/>
<path d="M0 0 C1.10851318 -0.01305176 2.21702637 -0.02610352 3.35913086 -0.03955078 C13.07670523 -0.04972093 22.25160876 1.4179523 31.6875 3.6875 C32.76773437 3.94273437 33.84796875 4.19796875 34.9609375 4.4609375 C35.96382812 4.70070313 36.96671875 4.94046875 38 5.1875 C42.35299929 6.21882599 46.60659648 7.18459093 51.0625 7.625 C54.78905902 8.15736557 57.61868535 9.1009503 61.0625 10.5 C63.22573315 11.34037838 63.22573315 11.34037838 66.5625 11.6875 C70.44636639 12.25242602 73.40277434 13.6369717 77 15.1875 C78.47486186 15.48087216 79.95454853 15.75072171 81.4375 16 C84.90049685 16.70045494 86.94799817 17.70452725 89.6484375 19.96484375 C94.16543366 23.48449221 98.96934625 25.64608091 104.1875 27.9375 C113.20276305 32.06821822 120.54089598 36.64772533 128 43.1875 C129.34964844 44.36699219 129.34964844 44.36699219 130.7265625 45.5703125 C132.40780745 47.06870301 134.07781576 48.57983112 135.734375 50.10546875 C137.80892036 52.0119044 139.92265931 53.8551561 142.0625 55.6875 C149.27041138 61.99804089 155.6525519 68.78121977 161.6328125 76.26171875 C163.66976621 78.77933975 165.76200495 81.23367221 167.88769531 83.67626953 C175.17558961 92.09522412 181.67886184 101.02752734 188 110.1875 C188.40959961 110.76564453 188.81919922 111.34378906 189.24121094 111.93945312 C196.48087223 122.27465042 200.82301677 134.01500707 205.39648438 145.69189453 C205.92544766 147.04082097 206.45473846 148.38961902 206.984375 149.73828125 C207.24066177 150.39111084 207.49694855 151.04394043 207.76100159 151.71655273 C209.58455922 156.29947125 211.67779169 160.66851209 213.94580078 165.04370117 C215.49120898 168.18641294 216.51911747 171.34285914 217.5625 174.6875 C218.88455291 178.88008769 220.28653774 182.93901935 222.125 186.9375 C225.0874764 193.98987296 225.68375501 201.84521407 226.67456055 209.375 C226.92860594 211.27979966 226.92860594 211.27979966 228 213.1875 C228.09949438 216.10963114 228.13978123 219.00736394 228.1328125 221.9296875 C228.13376923 222.80843536 228.13472595 223.68718323 228.13571167 224.59255981 C228.13639349 226.46047029 228.1345391 228.32838312 228.13037109 230.19628906 C228.12508651 233.0163325 228.13028257 235.83621196 228.13671875 238.65625 C228.13979023 247.88482622 228.04541339 257.00738924 227 266.1875 C225.35 266.8475 223.7 267.5075 222 268.1875 C222.33 269.8375 222.66 271.4875 223 273.1875 C222.01 273.6825 222.01 273.6825 221 274.1875 C221.04640625 274.86554688 221.0928125 275.54359375 221.140625 276.2421875 C221.38675402 282.58880016 220.55414038 286.95268968 217.94921875 292.7109375 C216.65768882 296.08060817 216.44652712 299.27069109 216.21484375 302.84765625 C215.91234609 306.14213075 215.02338882 309.04910762 214 312.1875 C213.01 312.1875 212.02 312.1875 211 312.1875 C210.8453125 313.0846875 210.8453125 313.0846875 210.6875 314 C209.90175967 316.50008286 209.03081147 317.56285082 207 319.1875 C206.34 319.1875 205.68 319.1875 205 319.1875 C205.33 317.2075 205.66 315.2275 206 313.1875 C205.34 313.1875 204.68 313.1875 204 313.1875 C203.74347656 314.00992187 203.48695313 314.83234375 203.22265625 315.6796875 C201.57907394 320.3951409 199.52811446 324.89138033 197.47851562 329.44140625 C196.0409884 332.67050138 194.79600039 335.74833156 194 339.1875 C192.15184991 346.03652679 190.35929496 352.17619468 186.28515625 358.01953125 C184.60806009 360.84867523 183.60554323 363.78017209 182.5 366.875 C179.30896947 375.4174482 179.30896947 375.4174482 175 378.1875 C171.1875 378.5 171.1875 378.5 168 378.1875 C166.515 383.6325 166.515 383.6325 165 389.1875 C163.68 389.5175 162.36 389.8475 161 390.1875 C161 391.1775 161 392.1675 161 393.1875 C162.65 392.8575 164.3 392.5275 166 392.1875 C165.43146636 396.05078884 164.34127224 398.68775759 162.1875 401.9375 C161.68605469 402.71609375 161.18460938 403.4946875 160.66796875 404.296875 C158.79992099 406.41428745 157.754893 406.8289456 155 407.1875 C154.67 405.8675 154.34 404.5475 154 403.1875 C146.12180319 409.63606807 146.12180319 409.63606807 140.75 418.125 C138.38888319 422.25695441 135.18237517 424.9237192 131 427.1875 C129.68 427.1875 128.36 427.1875 127 427.1875 C128.59810294 423.34121834 131.07962952 420.80567855 133.9375 417.8125 C143.06911969 408.05661289 151.13763098 397.66381679 158 386.1875 C157.67 385.8575 157.34 385.5275 157 385.1875 C156.12601563 386.45980469 156.12601563 386.45980469 155.234375 387.7578125 C150.60423889 394.41548703 145.79333903 400.86233217 140.5625 407.0625 C140.05493164 407.67496582 139.54736328 408.28743164 139.02441406 408.91845703 C137.75071922 410.40244376 136.38179203 411.80360479 135 413.1875 C134.01 413.1875 133.02 413.1875 132 413.1875 C131.7525 413.80625 131.505 414.425 131.25 415.0625 C129.76749514 417.58275827 128.71612936 418.19981659 126 419.1875 C125.01 419.1875 124.02 419.1875 123 419.1875 C123 420.1775 123 421.1675 123 422.1875 C121.35 422.5175 119.7 422.8475 118 423.1875 C117.67 422.1975 117.34 421.2075 117 420.1875 C114.36 422.8275 111.72 425.4675 109 428.1875 C109.66 429.8375 110.32 431.4875 111 433.1875 C104.03914614 438.90439899 97.04719722 444.5772584 90 450.1875 C91.0725 450.1875 92.145 450.1875 93.25 450.1875 C95.83333333 450.1875 98.41666667 450.1875 101 450.1875 C103.73930512 447.72914925 106.11436219 445.0591912 108.5625 442.3125 C109.366875 441.61125 110.17125 440.91 111 440.1875 C113.3125 440.375 113.3125 440.375 115 441.1875 C114.6875 443.125 114.6875 443.125 114 445.1875 C113.01 445.5175 112.02 445.8475 111 446.1875 C109.39625407 448.1718683 108.01685012 450.25567049 106.59765625 452.375 C104.74737158 454.47410046 103.68194697 454.67904755 101 455.1875 C99.61368993 457.38928657 98.78844132 459.71082938 97.8125 462.125 C95.53829753 465.96761796 92.97627643 468.17760973 89 470.1875 C86.0625 470.5 86.0625 470.5 84 470.1875 C83.87882812 469.54941406 83.75765625 468.91132812 83.6328125 468.25390625 C83.46523438 467.42761719 83.29765625 466.60132813 83.125 465.75 C82.96257812 464.92628906 82.80015625 464.10257813 82.6328125 463.25390625 C82.42398437 462.57199219 82.21515625 461.89007812 82 461.1875 C81.34 460.8575 80.68 460.5275 80 460.1875 C80.99 460.1875 81.98 460.1875 83 460.1875 C83.33 458.8675 83.66 457.5475 84 456.1875 C83.29875 457.033125 82.5975 457.87875 81.875 458.75 C79 461.1875 79 461.1875 75.6875 461 C74.800625 460.731875 73.91375 460.46375 73 460.1875 C72.95875 460.765 72.9175 461.3425 72.875 461.9375 C71.56599744 465.30350658 68.99062016 466.3183624 66 468.1875 C65.67 468.8475 65.34 469.5075 65 470.1875 C63.845 470.579375 62.69 470.97125 61.5 471.375 C55.37114072 473.53553313 50.35373319 477.65824942 45.95703125 482.3828125 C44 484.1875 44 484.1875 40.4375 484.625 C36.83432469 484.80717947 36.83432469 484.80717947 35.125 487.6875 C34.75375 488.5125 34.3825 489.3375 34 490.1875 C33 491.1875 33 491.1875 30.4375 491.25 C29.633125 491.229375 28.82875 491.20875 28 491.1875 C28 493.8275 28 496.4675 28 499.1875 C28.66 499.1875 29.32 499.1875 30 499.1875 C30 500.5075 30 501.8275 30 503.1875 C29.34 503.1875 28.68 503.1875 28 503.1875 C27.67 501.8675 27.34 500.5475 27 499.1875 C25.68 499.1875 24.36 499.1875 23 499.1875 C23 498.5275 23 497.8675 23 497.1875 C21.35 496.8575 19.7 496.5275 18 496.1875 C17.896875 496.80625 17.79375 497.425 17.6875 498.0625 C17 500.1875 17 500.1875 14 502.1875 C14.66 502.8475 15.32 503.5075 16 504.1875 C16 505.1775 16 506.1675 16 507.1875 C12.33513904 510.09783076 9.60625394 510.50886655 5 510.1875 C5 509.5275 5 508.8675 5 508.1875 C1.05622595 510.32371095 -2.49045647 512.5158325 -6 515.3125 C-9.58931699 518.08861236 -12.57663697 519.26596604 -17 520.1875 C-17 520.8475 -17 521.5075 -17 522.1875 C-19.90600261 523.44414978 -21.79604584 524.1875 -25 524.1875 C-25 525.1775 -25 526.1675 -25 527.1875 C-25.53439697 527.42114258 -26.06879395 527.65478516 -26.61938477 527.89550781 C-33.32080955 530.84688625 -39.92026632 533.99141413 -46.50976562 537.18359375 C-47.31994141 537.57160156 -48.13011719 537.95960938 -48.96484375 538.359375 C-50.05720337 538.8867627 -50.05720337 538.8867627 -51.17163086 539.42480469 C-53 540.1875 -53 540.1875 -55 540.1875 C-55.33 541.5075 -55.66 542.8275 -56 544.1875 C-57.32 543.8575 -58.64 543.5275 -60 543.1875 C-60 542.5275 -60 541.8675 -60 541.1875 C-60.66 541.5175 -61.32 541.8475 -62 542.1875 C-61.67 543.8375 -61.34 545.4875 -61 547.1875 C-62.32 546.8575 -63.64 546.5275 -65 546.1875 C-65.66 547.5075 -66.32 548.8275 -67 550.1875 C-67.66 549.8575 -68.32 549.5275 -69 549.1875 C-69.33 549.8475 -69.66 550.5075 -70 551.1875 C-70.99 551.5175 -71.98 551.8475 -73 552.1875 C-74.70855022 555.18757271 -74.70855022 555.18757271 -76 558.1875 C-76.99 558.1875 -77.98 558.1875 -79 558.1875 C-78.67 556.2075 -78.34 554.2275 -78 552.1875 C-79.98 552.8475 -81.96 553.5075 -84 554.1875 C-83.67 555.5075 -83.34 556.8275 -83 558.1875 C-86.79692186 561.01311627 -89.18569279 562.75388908 -94 562.1875 C-94 561.1975 -94 560.2075 -94 559.1875 C-95.98 559.1875 -97.96 559.1875 -100 559.1875 C-100.061875 560.095 -100.12375 561.0025 -100.1875 561.9375 C-101.2357348 566.13043918 -102.40084721 566.84083375 -106 569.1875 C-108.98707567 570.33377383 -112.02726115 571.14690533 -115.125 571.9375 C-116.34123047 572.26814453 -116.34123047 572.26814453 -117.58203125 572.60546875 C-120.84649488 573.47419378 -123.60396173 574.1875 -127 574.1875 C-127.33 575.8375 -127.66 577.4875 -128 579.1875 C-129.65 579.1875 -131.3 579.1875 -133 579.1875 C-133 578.1975 -133 577.2075 -133 576.1875 C-134.98 577.1775 -136.96 578.1675 -139 579.1875 C-138.34 580.5075 -137.68 581.8275 -137 583.1875 C-140.00177202 584.18809067 -141.70637674 584.20563932 -144.8125 584.0625 C-149.38428842 584.00957047 -151.9848968 584.91809384 -156 587.1875 C-158.64880548 587.9850418 -161.29783468 588.58184226 -164 589.1875 C-164 590.1775 -164 591.1675 -164 592.1875 C-165.32 592.5175 -166.64 592.8475 -168 593.1875 C-168 591.8675 -168 590.5475 -168 589.1875 C-169.32 588.8575 -170.64 588.5275 -172 588.1875 C-172.32871094 588.68121094 -172.65742187 589.17492188 -172.99609375 589.68359375 C-176.83247546 594.85075285 -176.83247546 594.85075285 -180.26171875 595.83984375 C-181.78769955 595.98361384 -183.31928613 596.07955264 -184.8515625 596.1171875 C-187.0381483 596.18874849 -188.90207058 596.58944772 -191 597.1875 C-191 596.5275 -191 595.8675 -191 595.1875 C-193.99152582 595.96229736 -193.99152582 595.96229736 -197 597.1875 C-197.33 598.1775 -197.66 599.1675 -198 600.1875 C-201.43173791 602.76130343 -203.73992294 603.53291165 -208 603.1875 C-210.32357511 603.00259993 -210.32357511 603.00259993 -213 605.1875 C-215.91796875 605.3828125 -215.91796875 605.3828125 -219.1875 605.3125 C-220.27417969 605.29445313 -221.36085938 605.27640625 -222.48046875 605.2578125 C-223.72763672 605.22300781 -223.72763672 605.22300781 -225 605.1875 C-225 605.8475 -225 606.5075 -225 607.1875 C-226.32 606.8575 -227.64 606.5275 -229 606.1875 C-229.33 607.8375 -229.66 609.4875 -230 611.1875 C-231.32 611.5175 -232.64 611.8475 -234 612.1875 C-234.33 610.8675 -234.66 609.5475 -235 608.1875 C-238.82293424 609.18874468 -240.91727733 610.11197061 -243.875 612.8125 C-248.00405545 615.95058214 -249.94579205 615.53015817 -255 615.1875 C-255.33 615.5175 -255.66 615.8475 -256 616.1875 C-259.55214992 616.72804455 -263.11326665 617.15411061 -266.6796875 617.58984375 C-270.12357633 617.98205954 -270.12357633 617.98205954 -273 620.1875 C-279.27027027 617.91722973 -279.27027027 617.91722973 -281 616.1875 C-284.78998123 616.58644539 -286.46285312 617.40872008 -289 620.1875 C-289.66 620.1875 -290.32 620.1875 -291 620.1875 C-291.33 619.5275 -291.66 618.8675 -292 618.1875 C-293.97888961 617.46056096 -295.97954558 616.78933749 -298 616.1875 C-298 617.5075 -298 618.8275 -298 620.1875 C-298.70125 619.878125 -299.4025 619.56875 -300.125 619.25 C-303.08936657 618.15447322 -305.87698108 617.62327008 -309 617.1875 C-308.67 619.4975 -308.34 621.8075 -308 624.1875 C-309.11375 623.506875 -309.11375 623.506875 -310.25 622.8125 C-312.46930578 621.50109204 -314.67967822 620.30469197 -317 619.1875 C-317.33 619.5175 -317.66 619.8475 -318 620.1875 C-319.66617115 620.22813832 -321.33388095 620.230221 -323 620.1875 C-322.67 619.1975 -322.34 618.2075 -322 617.1875 C-321.34 617.1875 -320.68 617.1875 -320 617.1875 C-320 616.5275 -320 615.8675 -320 615.1875 C-323.96639465 614.29141033 -323.96639465 614.29141033 -327.9375 614.6875 C-332.80479667 615.86745071 -338.54957534 614.25746496 -343 612.1875 C-344.64530416 609.27082445 -345 607.54029018 -345 604.1875 C-345.53496094 604.11402344 -346.06992187 604.04054688 -346.62109375 603.96484375 C-349.97387209 602.8692725 -352.28158308 600.90374607 -355.0625 598.75 C-358.0081391 596.48160302 -360.90631645 594.2499557 -364 592.1875 C-363.835 591.424375 -363.67 590.66125 -363.5 589.875 C-362.83802725 586.31689648 -363.04890038 583.63523611 -364 580.1875 C-362.75482035 579.05716702 -361.50363348 577.93344964 -360.25 576.8125 C-359.55390625 576.18601562 -358.8578125 575.55953125 -358.140625 574.9140625 C-356.15491312 573.31244817 -354.32045907 572.22229932 -352 571.1875 C-351.34 571.8475 -350.68 572.5075 -350 573.1875 C-349.34 572.1975 -348.68 571.2075 -348 570.1875 C-347.38125 570.331875 -346.7625 570.47625 -346.125 570.625 C-342.52237419 571.27347265 -338.95670294 571.50003083 -335.3046875 571.7109375 C-332.58403067 572.273514 -331.62027429 572.95300408 -330 575.1875 C-330 576.1775 -330 577.1675 -330 578.1875 C-312.50692415 578.49654219 -297.80213695 576.18914965 -281.44995117 569.90600586 C-278.84833129 569.14301958 -276.69627121 569.05523237 -274 569.1875 C-274.33 567.5375 -274.66 565.8875 -275 564.1875 C-275.45375 564.6825 -275.9075 565.1775 -276.375 565.6875 C-278 567.1875 -278 567.1875 -280 567.1875 C-281.35278115 565.20060269 -282.68568305 563.20004782 -284 561.1875 C-284.66 560.8575 -285.32 560.5275 -286 560.1875 C-286 559.5275 -286 558.8675 -286 558.1875 C-286.7425 558.290625 -287.485 558.39375 -288.25 558.5 C-291 558.1875 -291 558.1875 -293.25 555.875 C-295 553.1875 -295 553.1875 -296 550.1875 C-296.99 550.1875 -297.98 550.1875 -299 550.1875 C-299.90413673 546.35025828 -300.10576898 542.81247726 -300.0625 538.875 C-300.05347656 537.80636719 -300.04445313 536.73773437 -300.03515625 535.63671875 C-300.02355469 534.82847656 -300.01195312 534.02023437 -300 533.1875 C-300.99 532.8575 -301.98 532.5275 -303 532.1875 C-302.50269348 527.21443484 -301.44697666 523.54950187 -299 519.1875 C-299.66 519.1875 -300.32 519.1875 -301 519.1875 C-298.98712276 499.02868468 -294.57642096 479.5066948 -289 460.0625 C-288.79084961 459.33227631 -288.58169922 458.60205261 -288.36621094 457.84970093 C-285.79655647 448.9249019 -283.02665368 440.09066689 -280.02172852 431.30273438 C-279.20315813 428.80692597 -278.51350047 426.37083162 -277.9375 423.8125 C-277.18915284 420.91889098 -276.39364081 418.77494085 -275.125 416.125 C-273.34473075 412.31044226 -272.27553285 408.56278542 -271.27734375 404.4765625 C-269.00295212 395.59689642 -265.75334874 387.15831971 -262.4375 378.625 C-261.16463337 375.31638096 -259.89685379 372.00581922 -258.62890625 368.6953125 C-258.31417358 367.87571548 -257.99944092 367.05611847 -257.6751709 366.21168518 C-255.41235048 360.30680954 -253.23992163 354.37570332 -251.10424805 348.42358398 C-241.53656051 321.77657657 -231.09176802 295.29720656 -219.7980957 269.33325195 C-218.82920243 266.98633457 -218.82920243 266.98633457 -218.5625 263.5 C-217.97979836 260.06853479 -217.31118585 258.99646992 -215.31640625 256.26953125 C-211.50556492 250.70826644 -208.97987953 244.7582869 -206.375 238.5625 C-201.16704099 226.29486321 -201.16704099 226.29486321 -198.74609375 222.21484375 C-197.17512119 219.49112175 -196.3641602 217.40705755 -195.6875 214.375 C-194.61798248 210.48436313 -193.16932129 207.76076037 -190.75 204.54296875 C-187.02892825 199.37329761 -184.15400512 194.00040853 -181.3125 188.3125 C-173.38424723 172.82381935 -164.51313406 158.17066716 -154.60302734 143.87402344 C-151.36651696 139.20356601 -148.19520906 134.50908687 -145.1875 129.6875 C-144.56230469 128.6871875 -143.93710937 127.686875 -143.29296875 126.65625 C-141.76802269 124.20904437 -141.76802269 124.20904437 -142 121.1875 C-143.05233902 119.1930359 -143.05233902 119.1930359 -144.4375 117.1875 C-146.04312154 114.77220606 -147.07237414 112.97037757 -148 110.1875 C-150.92961412 109.00135258 -150.92961412 109.00135258 -153.875 109.375 C-157.85102776 109.13643833 -159.21757093 107.96992907 -162 105.1875 C-162.30292969 104.53394531 -162.60585938 103.88039063 -162.91796875 103.20703125 C-164.18141375 100.84890467 -165.33056802 100.06335616 -167.5625 98.625 C-172.93014629 94.74453644 -177.64352502 89.91370848 -181 84.1875 C-181.03950051 81.85450104 -181.04406927 79.52041713 -181 77.1875 C-181.99 76.3625 -182.98 75.5375 -184 74.6875 C-187 72.1875 -187 72.1875 -187.875 68.8125 C-185.52963655 59.09599429 -172.00005235 53.33657616 -164 48.1875 C-163.11248047 47.61451172 -162.22496094 47.04152344 -161.31054688 46.45117188 C-158.418703 44.58718775 -155.52284902 42.7296331 -152.625 40.875 C-151.71024902 40.288396 -150.79549805 39.70179199 -149.85302734 39.09741211 C-135.86539002 30.19861288 -135.86539002 30.19861288 -128.4375 27.375 C-123.14168852 25.35401275 -118.15902313 22.81652154 -113.14819336 20.18041992 C-103.94975072 15.43716314 -94.27705221 12.55350928 -84.25 10.125 C-82.67738403 9.73985229 -82.67738403 9.73985229 -81.07299805 9.34692383 C-69.72674311 6.5957606 -58.64203215 4.12532859 -46.953125 3.43359375 C-44.33683429 3.21556952 -41.98350397 2.79729466 -39.4375 2.1875 C-26.67611299 -0.5441707 -12.97603188 0.08758531 0 0 Z M14 96.1875 C12.60934415 96.20616078 11.21775478 96.18157723 9.828125 96.125 C3.86727883 95.99399239 -1.54641892 97.59200953 -7.25 99.1875 C-8.38010498 99.4978418 -9.51020996 99.80818359 -10.67456055 100.12792969 C-29.58622834 105.36678385 -29.58622834 105.36678385 -47 114.1875 C-46.67 115.1775 -46.34 116.1675 -46 117.1875 C-44.845 117.661875 -43.69 118.13625 -42.5 118.625 C-39 120.1875 -39 120.1875 -38.0625 122.25 C-38.02017797 123.5619829 -38 124.87483467 -38 126.1875 C-37.34 126.1875 -36.68 126.1875 -36 126.1875 C-35.67 127.1775 -35.34 128.1675 -35 129.1875 C-33.02 128.1975 -31.04 127.2075 -29 126.1875 C-28.4121875 127.8271875 -28.4121875 127.8271875 -27.8125 129.5 C-26.65631246 132.21758099 -26.30067967 133.00871749 -23.6875 134.5625 C-20.09956404 136.73194965 -18.61059482 139.54143909 -16.42578125 143.05859375 C-15.03868712 145.34239711 -15.03868712 145.34239711 -12.625 147.1875 C-10.33406914 150.00710721 -10.37258578 152.20463485 -10.5703125 155.76953125 C-12.54412899 166.87673496 -22.77332823 175.09508605 -31.421875 181.453125 C-36.22807219 185.14657215 -39.54564284 189.37105858 -43 194.3125 C-43.59377441 195.14128662 -44.18754883 195.97007324 -44.79931641 196.82397461 C-46.54582476 199.26960681 -48.2737874 201.72751975 -50 204.1875 C-50.96529232 205.54097371 -51.93136621 206.89389056 -52.8984375 208.24609375 C-57.11401926 213.3019531 -57.11401926 213.3019531 -59 219.1875 C-59.99 219.5175 -60.98 219.8475 -62 220.1875 C-63.08431094 221.93617483 -63.08431094 221.93617483 -64 224.1875 C-66.36680696 229.19201351 -69.20188926 233.70826224 -72.25 238.3125 C-77.17308809 245.78443854 -81.62608762 253.42819433 -85.93261719 261.26757812 C-87.34402969 263.80631278 -88.80533263 266.31459412 -90.2668457 268.82470703 C-93.06317946 273.63912803 -95.72019611 278.43308258 -97.8671875 283.578125 C-98.84385516 285.82782843 -99.87622551 288.02781164 -100.9453125 290.234375 C-101.48091797 291.34558716 -101.48091797 291.34558716 -102.02734375 292.47924805 C-102.74058211 293.95474404 -103.459049 295.4277281 -104.18359375 296.89770508 C-106.44376928 301.60294983 -107.8864452 306.08466383 -109 311.1875 C-109.66 311.1875 -110.32 311.1875 -111 311.1875 C-120.13931921 329.99555884 -120.13931921 329.99555884 -127.12353516 349.66552734 C-128.40817129 354.0042041 -130.0994276 356.75440063 -133 360.1875 C-136.41459284 367.02661182 -138.75875354 374.32110034 -141.09765625 381.58203125 C-142 384.1875 -142 384.1875 -143.5625 387.25 C-144.8571325 389.89555336 -145.46268259 391.97462341 -146.125 394.8125 C-147.5254284 400.23524361 -149.69837896 405.04812966 -152.06640625 410.09375 C-156.84785395 420.5076963 -160.82108293 431.14636954 -164.68768311 441.92736816 C-166.61679957 447.30427392 -168.57058781 452.67216343 -170.52734375 458.0390625 C-170.91077942 459.09121948 -171.29421509 460.14337646 -171.68927002 461.22741699 C-175.33922788 471.19743218 -179.23161178 481.05903737 -183.29614258 490.86669922 C-185.95058709 497.31958466 -188.16966075 503.75154886 -190.04882812 510.47460938 C-191.58031794 514.84265733 -193.84596963 517.11048482 -198 519.1875 C-197.67 521.4975 -197.34 523.8075 -197 526.1875 C-198.32 525.8575 -199.64 525.5275 -201 525.1875 C-203.58481724 531.25620135 -204.55936167 536.62876798 -205 543.1875 C-197.2290208 541.78577274 -190.45946963 539.04927337 -183.25 535.875 C-182.02657092 535.34230527 -180.80293358 534.81008865 -179.57910156 534.27832031 C-176.3661694 532.87864717 -173.15865138 531.46701822 -169.953125 530.05047607 C-168.01110244 529.19240554 -166.06812299 528.33653224 -164.125 527.48095703 C-160.3296178 525.80812154 -156.53912478 524.12445209 -152.75 522.4375 C-151.61079102 521.93178467 -150.47158203 521.42606934 -149.29785156 520.9050293 C-135.02363819 514.50186575 -121.13357569 507.32127099 -107.3125 500 C-106.62134094 499.63410767 -105.93018188 499.26821533 -105.21807861 498.89123535 C-94.03231511 492.95294349 -83.22625957 486.57643294 -72.5390625 479.77880859 C-67.86821663 476.85144577 -63.12190323 474.05174062 -58.375 471.25 C-57.49827637 470.73018555 -56.62155273 470.21037109 -55.71826172 469.67480469 C-51.37321635 467.11384502 -47.0031783 464.65617113 -42.5390625 462.30859375 C-37.63221792 459.65409256 -33.21539081 456.57165016 -28.75048828 453.23583984 C-24.23069073 449.86986244 -19.57405968 446.70211903 -14.9375 443.5 C-4.86759083 436.51739427 5.10890591 429.42083446 15 422.1875 C15.79422363 421.60726074 16.58844727 421.02702148 17.40673828 420.42919922 C25.44000947 414.55378875 33.45690194 408.65514063 41.375 402.625 C42.35210938 401.88121094 43.32921875 401.13742187 44.3359375 400.37109375 C47.07805022 398.12352628 49.51574917 395.71492107 52 393.1875 C53.72212754 391.61724513 55.45186376 390.0553104 57.1875 388.5 C62.71368814 383.48518249 68.0298015 378.26971225 73.3125 373 C74.06490967 372.25210205 74.81731934 371.5042041 75.5925293 370.73364258 C80.26684542 366.04692362 84.69694005 361.21556436 89 356.1875 C89.92394575 355.13104367 90.84839019 354.07502317 91.7734375 353.01953125 C101.08281399 342.21450418 108.74333929 330.88040285 115.8125 318.5 C116.36405762 317.53787598 116.91561523 316.57575195 117.48388672 315.58447266 C120.40681382 310.3789297 122.92822751 305.20646259 125.05444336 299.62866211 C126.01285893 297.15430186 127.06160883 294.7407892 128.1484375 292.3203125 C135.4104548 276.04932884 140.64432627 259.69934926 144 242.1875 C144.33089258 240.57919239 144.66301331 238.97113717 144.99609375 237.36328125 C149.98666114 212.84580143 151.11512212 189.34318579 148.26464844 164.49511719 C148.03953275 162.53220807 147.83407268 160.56706081 147.6328125 158.6015625 C145.69864351 142.93084637 139.5416423 122.58104264 127.421875 111.78125 C109.79097852 100.24701866 77.96203302 94.00577206 57.10546875 95.1796875 C55 95.1875 55 95.1875 52.27246094 94.69848633 C46.56505736 93.80728999 40.82790771 94.00296422 35.0625 94 C33.81275391 93.98775391 32.56300781 93.97550781 31.27539062 93.96289062 C25.05941158 93.95298731 19.96421853 94.33603093 14 96.1875 Z M207 293.1875 C208 295.1875 208 295.1875 208 295.1875 Z M208 297.1875 C209 299.1875 209 299.1875 209 299.1875 Z M192 328.1875 C193 331.1875 193 331.1875 193 331.1875 Z M170 353.1875 C170.33 355.8275 170.66 358.4675 171 361.1875 C171.99 360.8575 172.98 360.5275 174 360.1875 C174 358.2075 174 356.2275 174 354.1875 C172.68 353.8575 171.36 353.5275 170 353.1875 Z M170 361.1875 C168.66512643 363.23171221 167.3834408 365.28436447 166.125 367.375 C165.77308594 367.95314453 165.42117188 368.53128906 165.05859375 369.12695312 C164.03473624 370.8111797 163.01727901 372.49929184 162 374.1875 C161.41992188 375.11175781 160.83984375 376.03601562 160.2421875 376.98828125 C158.83606586 379.05677134 158.83606586 379.05677134 159 381.1875 C159.66 381.1875 160.32 381.1875 161 381.1875 C162.29855607 378.98297458 163.58888195 376.77426704 164.875 374.5625 C165.23980469 373.94503906 165.60460937 373.32757812 165.98046875 372.69140625 C168.14861194 368.94643164 169.77764879 365.36922783 171 361.1875 C170.67 361.1875 170.34 361.1875 170 361.1875 Z M160 393.1875 C161 396.1875 161 396.1875 161 396.1875 Z M-204 398.1875 C-203 400.1875 -203 400.1875 -203 400.1875 Z M131 407.1875 C132 409.1875 132 409.1875 132 409.1875 Z M126 410.1875 C127 412.1875 127 412.1875 127 412.1875 Z M121 416.1875 C122 418.1875 122 418.1875 122 418.1875 Z M105 430.1875 C104.67 430.8475 104.34 431.5075 104 432.1875 C104.66 432.1875 105.32 432.1875 106 432.1875 C105.67 431.5275 105.34 430.8675 105 430.1875 Z M94 439.1875 C94 439.8475 94 440.5075 94 441.1875 C97.36720387 439.79417426 98.9859524 438.2085714 101 435.1875 C97.81959166 435.1875 96.2915768 437.13714181 94 439.1875 Z M86 447.1875 C85.34 447.8475 84.68 448.5075 84 449.1875 C84.99 449.1875 85.98 449.1875 87 449.1875 C86.67 448.5275 86.34 447.8675 86 447.1875 Z M88 451.1875 C87.01 452.6725 87.01 452.6725 86 454.1875 C86.99 454.1875 87.98 454.1875 89 454.1875 C88.67 453.1975 88.34 452.2075 88 451.1875 Z M93 458.1875 C92.34 458.8475 91.68 459.5075 91 460.1875 C91.99 460.1875 92.98 460.1875 94 460.1875 C93.67 459.5275 93.34 458.8675 93 458.1875 Z M-222 463.1875 C-223.35827971 464.83389965 -224.69254251 466.50045807 -226 468.1875 C-225.01 468.1875 -224.02 468.1875 -223 468.1875 C-222.34 466.5375 -221.68 464.8875 -221 463.1875 C-221.33 463.1875 -221.66 463.1875 -222 463.1875 Z M86 463.1875 C85.67 463.8475 85.34 464.5075 85 465.1875 C85.66 465.8475 86.32 466.5075 87 467.1875 C86.67 465.8675 86.34 464.5475 86 463.1875 Z M-237 475.1875 C-236 477.1875 -236 477.1875 -236 477.1875 Z M-232 475.1875 C-232.33 475.8475 -232.66 476.5075 -233 477.1875 C-232.34 477.1875 -231.68 477.1875 -231 477.1875 C-231.33 476.5275 -231.66 475.8675 -232 475.1875 Z M-233 481.1875 C-233 482.8375 -233 484.4875 -233 486.1875 C-232.34 486.1875 -231.68 486.1875 -231 486.1875 C-230.67 487.1775 -230.34 488.1675 -230 489.1875 C-229.34 486.5475 -228.68 483.9075 -228 481.1875 C-229.65 481.1875 -231.3 481.1875 -233 481.1875 Z M-224 495.1875 C-226.62387135 496.57842892 -226.62387135 496.57842892 -229 498.1875 C-228.01 498.5175 -227.02 498.8475 -226 499.1875 C-223.80961577 497.81581762 -223.80961577 497.81581762 -222 496.1875 C-222.66 495.8575 -223.32 495.5275 -224 495.1875 Z M-218 495.1875 C-217 497.1875 -217 497.1875 -217 497.1875 Z M-229 504.1875 C-229.66 506.1675 -230.32 508.1475 -231 510.1875 C-229.68 509.5275 -228.36 508.8675 -227 508.1875 C-227.33 506.8675 -227.66 505.5475 -228 504.1875 C-228.33 504.1875 -228.66 504.1875 -229 504.1875 Z M7 505.1875 C6.01 505.6825 6.01 505.6825 5 506.1875 C5 506.8475 5 507.5075 5 508.1875 C6.32 507.5275 7.64 506.8675 9 506.1875 C8.34 505.8575 7.68 505.5275 7 505.1875 Z M-232 511.1875 C-235.48747042 519.42359251 -237.4139567 526.48588443 -237.68725586 535.40722656 C-237.89756818 541.35418953 -239.18888625 546.55729855 -241 552.1875 C-241.34397199 553.51812848 -241.68111536 554.85063745 -242 556.1875 C-242.99 556.1875 -243.98 556.1875 -245 556.1875 C-245.103125 555.548125 -245.20625 554.90875 -245.3125 554.25 C-245.539375 553.569375 -245.76625 552.88875 -246 552.1875 C-246.99 551.8575 -247.98 551.5275 -249 551.1875 C-249.66 547.8875 -250.32 544.5875 -251 541.1875 C-254.08422649 545.81383974 -254.29258461 549.3610941 -254.5625 554.8125 C-254.60568359 555.61429688 -254.64886719 556.41609375 -254.69335938 557.2421875 C-254.79951457 559.2237511 -254.90026855 561.20560271 -255 563.1875 C-252.92022703 561.96159808 -252.92022703 561.96159808 -251 560.1875 C-251 558.8675 -251 557.5475 -251 556.1875 C-248 557.1875 -248 557.1875 -246 559.1875 C-242.78890269 558.25929922 -239.58169778 557.31827758 -236.375 556.375 C-235.47136719 556.11396484 -234.56773437 555.85292969 -233.63671875 555.58398438 C-231.87258273 555.06246971 -230.11480869 554.51885612 -228.36474609 553.9519043 C-226.40605611 553.31875766 -224.42384886 552.7588975 -222.4375 552.21875 C-219.42615057 549.70929215 -219.47152188 548.66990548 -218.9765625 544.86328125 C-218.83040426 542.7439867 -218.71433941 540.62244908 -218.625 538.5 C-218.55667969 537.41654297 -218.48835938 536.33308594 -218.41796875 535.21679688 C-218.25292795 532.54077816 -218.11470991 529.86607135 -218 527.1875 C-218.66 527.1875 -219.32 527.1875 -220 527.1875 C-219.01 526.1975 -218.02 525.2075 -217 524.1875 C-217.495 523.1975 -217.495 523.1975 -218 522.1875 C-219.32 522.5175 -220.64 522.8475 -222 523.1875 C-222 521.2075 -222 519.2275 -222 517.1875 C-223.11375 517.496875 -223.11375 517.496875 -224.25 517.8125 C-227.32330841 518.23158751 -228.42786866 517.80699011 -231 516.1875 C-231 514.5375 -231 512.8875 -231 511.1875 C-231.33 511.1875 -231.66 511.1875 -232 511.1875 Z M-240 517.1875 C-241.25664978 520.09350261 -242 521.98354584 -242 525.1875 C-241.34 525.1875 -240.68 525.1875 -240 525.1875 C-239.67 522.5475 -239.34 519.9075 -239 517.1875 C-239.33 517.1875 -239.66 517.1875 -240 517.1875 Z M-19 516.1875 C-19.66 516.8475 -20.32 517.5075 -21 518.1875 C-20.01 518.1875 -19.02 518.1875 -18 518.1875 C-18.33 517.5275 -18.66 516.8675 -19 516.1875 Z M-244 532.1875 C-243 535.1875 -243 535.1875 -243 535.1875 Z M-245 536.1875 C-244 539.1875 -244 539.1875 -244 539.1875 Z M-209 541.1875 C-208 543.1875 -208 543.1875 -208 543.1875 Z M-259 552.1875 C-261.4294516 555.8316774 -261.16179575 557.89991272 -261 562.1875 C-260.01 562.1875 -259.02 562.1875 -258 562.1875 C-258 558.8875 -258 555.5875 -258 552.1875 C-258.33 552.1875 -258.66 552.1875 -259 552.1875 Z M-267 559.1875 C-268.62750037 561.51073453 -268.62750037 561.51073453 -270 564.1875 C-269.67 565.1775 -269.34 566.1675 -269 567.1875 C-267.35 565.5375 -265.7 563.8875 -264 562.1875 C-264.99 561.1975 -265.98 560.2075 -267 559.1875 Z M-103 560.1875 C-102 562.1875 -102 562.1875 -102 562.1875 Z M-153 578.1875 C-153.99 579.6725 -153.99 579.6725 -155 581.1875 C-154.01 581.6825 -154.01 581.6825 -153 582.1875 C-152.34 580.8675 -151.68 579.5475 -151 578.1875 C-151.66 578.1875 -152.32 578.1875 -153 578.1875 Z M-314 612.1875 C-313 614.1875 -313 614.1875 -313 614.1875 Z " fill="#2A114B" transform="translate(759,937.8125)"/>
<path d="M0 0 C0 1.98 0 3.96 0 6 C-1.32 6.33 -2.64 6.66 -4 7 C-4.0825 7.86625 -4.165 8.7325 -4.25 9.625 C-5 13 -5 13 -6.9375 15.75 C-9.30844642 19.48603678 -9.8664245 22.50857315 -10.5078125 26.828125 C-11 29 -11 29 -13 31 C-13.99 31 -14.98 31 -16 31 C-15.34 31.99 -14.68 32.98 -14 34 C-12.68 34 -11.36 34 -10 34 C-10.495 36.475 -10.495 36.475 -11 39 C-13.97 38.67 -16.94 38.34 -20 38 C-21.213256 34.360232 -20.68859268 33.58971449 -19.234375 30.140625 C-18.83863281 29.18929688 -18.44289063 28.23796875 -18.03515625 27.2578125 C-17.61105469 26.26523438 -17.18695312 25.27265625 -16.75 24.25 C-16.34136719 23.27289062 -15.93273437 22.29578125 -15.51171875 21.2890625 C-14.71274091 19.38281955 -13.90756918 17.47915879 -13.09570312 15.57836914 C-12.42941775 14.0104904 -11.77403449 12.43784035 -11.13867188 10.85717773 C-9.06645637 5.74494633 -6.12431501 0 0 0 Z " fill="#2A114B" transform="translate(969,1257)"/>
<path d="M0 0 C3.3 0 6.6 0 10 0 C9.67 1.32 9.34 2.64 9 4 C8.34 4 7.68 4 7 4 C6.34 5.65 5.68 7.3 5 9 C5.66 9 6.32 9 7 9 C7 10.32 7 11.64 7 13 C5.68 13 4.36 13 3 13 C2.67 11.68 2.34 10.36 2 9 C1.67 11.64 1.34 14.28 1 17 C-0.9375 16.6875 -0.9375 16.6875 -3 16 C-3.33 15.01 -3.66 14.02 -4 13 C-6.64 14.98 -9.28 16.96 -12 19 C-12.99 18.01 -13.98 17.02 -15 16 C-13.9171875 15.34773438 -12.834375 14.69546875 -11.71875 14.0234375 C-10.31179649 13.14174663 -8.90558434 12.25887196 -7.5 11.375 C-6.78457031 10.94832031 -6.06914063 10.52164062 -5.33203125 10.08203125 C-3.36263649 8.82536983 -1.63748948 7.66819241 0 6 C0.62877689 2.77057443 0.62877689 2.77057443 0 0 Z " fill="#2A114B" transform="translate(831,1402)"/>
<path d="M0 0 C0 0.99 0 1.98 0 3 C-0.928125 3.4125 -1.85625 3.825 -2.8125 4.25 C-5.88054681 5.93441786 -7.19040465 7.08454083 -9 10 C-10.65 9.67 -12.3 9.34 -14 9 C-12.87327252 5.61981757 -12.01680279 4.91880663 -9.25 2.8125 C-8.23679687 2.01779297 -8.23679687 2.01779297 -7.203125 1.20703125 C-4.60880278 -0.21432614 -2.91441927 -0.22928124 0 0 Z " fill="#2A114B" transform="translate(712,1492)"/>
<path d="M0 0 C-0.5619765 3.93383553 -1.49616713 6.87020891 -4 10 C-6.6875 10.3125 -6.6875 10.3125 -9 10 C-8.68279301 6.51072308 -8.33692769 4.44149146 -6.1875 1.625 C-4 0 -4 0 0 0 Z " fill="#2A114B" transform="translate(885,1367)"/>
<path d="M0 0 C1.32 0.66 2.64 1.32 4 2 C3.24266726 3.3410477 2.46867264 4.67269781 1.6875 6 C1.25824219 6.7425 0.82898438 7.485 0.38671875 8.25 C-0.07089844 8.8275 -0.52851562 9.405 -1 10 C-1.99 10 -2.98 10 -4 10 C-4.8125 7.8125 -4.8125 7.8125 -5 5 C-2.5625 2.1875 -2.5625 2.1875 0 0 Z " fill="#2A114B" transform="translate(930,1317)"/>
<path d="M0 0 C0 0.99 0 1.98 0 3 C-1.57967807 3.67528223 -3.16391903 4.33989694 -4.75 5 C-6.07257812 5.556875 -6.07257812 5.556875 -7.421875 6.125 C-10 7 -10 7 -14 7 C-14 6.01 -14 5.02 -14 4 C-12.0429132 3.32968281 -10.08428887 2.66385317 -8.125 2 C-7.03445313 1.62875 -5.94390625 1.2575 -4.8203125 0.875 C-2 0 -2 0 0 0 Z " fill="#2A114B" transform="translate(627,1524)"/>
<path d="M0 0 C1.65 0 3.3 0 5 0 C5 1.32 5 2.64 5 4 C3.35 4.33 1.7 4.66 0 5 C-0.33 5.99 -0.66 6.98 -1 8 C-1.99 8 -2.98 8 -4 8 C-4 6.68 -4 5.36 -4 4 C-3.34 4 -2.68 4 -2 4 C-1.34 2.68 -0.68 1.36 0 0 Z " fill="#2A114B" transform="translate(758,1461)"/>
<path d="M0 0 C0.66 0 1.32 0 2 0 C1.67 2.97 1.34 5.94 1 9 C-0.32 9 -1.64 9 -3 9 C-3.25532751 5.93606987 -3.21861333 4.36766788 -1.625 1.6875 C-0.820625 0.8521875 -0.820625 0.8521875 0 0 Z " fill="#2A114B" transform="translate(948,1298)"/>
<path d="M0 0 C-0.1875 1.875 -0.1875 1.875 -1 4 C-3.89111788 5.52164099 -5.71823412 6 -9 6 C-9 5.01 -9 4.02 -9 3 C-3.375 0 -3.375 0 0 0 Z " fill="#2A114B" transform="translate(628,1533)"/>
<path d="M0 0 C0.66 0 1.32 0 2 0 C2 1.65 2 3.3 2 5 C1.34 5 0.68 5 0 5 C0 5.99 0 6.98 0 8 C-1.32 7.67 -2.64 7.34 -4 7 C-4 5.68 -4 4.36 -4 3 C-3.01 2.67 -2.02 2.34 -1 2 C-0.67 1.34 -0.34 0.68 0 0 Z " fill="#2A114B" transform="translate(787,1444)"/>
<path d="M0 0 C-1.38877354 3.35620271 -2.91677965 5.07298728 -6 7 C-6.66 7 -7.32 7 -8 7 C-7.08529012 1.6946827 -5.46561428 0 0 0 Z " fill="#2A114B" transform="translate(852,1409)"/>
<path d="M0 0 C1.65 0 3.3 0 5 0 C4.67 1.65 4.34 3.3 4 5 C2.68 5 1.36 5 0 5 C0 3.35 0 1.7 0 0 Z " fill="#2A114B" transform="translate(747,1468)"/>
<path d="M0 0 C1.65 0 3.3 0 5 0 C5.33 1.32 5.66 2.64 6 4 C4.02 4 2.04 4 0 4 C0 2.68 0 1.36 0 0 Z " fill="#2A114B" transform="translate(633,1521)"/>
<path d="M0 0 C0 0.99 0 1.98 0 3 C-2.90600261 4.25664978 -4.79604584 5 -8 5 C-8 4.01 -8 3.02 -8 2 C-4.91190305 0.23537317 -3.76687864 0 0 0 Z " fill="#2A114B" transform="translate(660,1520)"/>
<path d="M0 0 C0.99 0 1.98 0 3 0 C3 1.98 3 3.96 3 6 C1.35 6 -0.3 6 -2 6 C-2 5.01 -2 4.02 -2 3 C-1.34 3 -0.68 3 0 3 C0 2.01 0 1.02 0 0 Z " fill="#2A114B" transform="translate(770,1455)"/>
<path d="M0 0 C1.32 0 2.64 0 4 0 C3.67 0.99 3.34 1.98 3 3 C2.01 3 1.02 3 0 3 C0 3.66 0 4.32 0 5 C-1.32 5.33 -2.64 5.66 -4 6 C-3.67 4.68 -3.34 3.36 -3 2 C-2.01 2 -1.02 2 0 2 C0 1.34 0 0.68 0 0 Z " fill="#2A114B" transform="translate(840,1416)"/>
<path d="M0 0 C1.65 0 3.3 0 5 0 C5 0.99 5 1.98 5 3 C3.02 3.66 1.04 4.32 -1 5 C-0.67 3.35 -0.34 1.7 0 0 Z " fill="#2A114B" transform="translate(664,1516)"/>
<path d="M0 0 C0.99 0 1.98 0 3 0 C3 0.99 3 1.98 3 3 C2.34 3 1.68 3 1 3 C1 3.99 1 4.98 1 6 C-0.32 6 -1.64 6 -3 6 C-3 5.01 -3 4.02 -3 3 C-2.01 3 -1.02 3 0 3 C0 2.01 0 1.02 0 0 Z " fill="#2A114B" transform="translate(779,1446)"/>
<path d="M0 0 C-0.99 1.485 -0.99 1.485 -2 3 C-4.625 3.1875 -4.625 3.1875 -7 3 C-6.67 2.01 -6.34 1.02 -6 0 C-3.50907189 -1.24546405 -2.58919267 -0.7767578 0 0 Z " fill="#2A114B" transform="translate(640,1530)"/>
<path d="M0 0 C1.65 0 3.3 0 5 0 C4.6875 1.9375 4.6875 1.9375 4 4 C3.01 4.33 2.02 4.66 1 5 C0.67 3.35 0.34 1.7 0 0 Z " fill="#2A114B" transform="translate(795,1437)"/>
<path d="M0 0 C0.99 0 1.98 0 3 0 C2.67 1.65 2.34 3.3 2 5 C1.01 5 0.02 5 -1 5 C-0.67 3.35 -0.34 1.7 0 0 Z " fill="#2A114B" transform="translate(858,1382)"/>
<path d="M0 0 C1.32 0 2.64 0 4 0 C3.6875 1.9375 3.6875 1.9375 3 4 C2.01 4.33 1.02 4.66 0 5 C0 3.35 0 1.7 0 0 Z " fill="#2A114B" transform="translate(778,1437)"/>
<path d="M0 0 C1.65 0 3.3 0 5 0 C5 0.66 5 1.32 5 2 C3.02 2.33 1.04 2.66 -1 3 C-0.67 2.01 -0.34 1.02 0 0 Z " fill="#2A114B" transform="translate(674,1512)"/>
<path d="M0 0 C0.99 0 1.98 0 3 0 C3 1.65 3 3.3 3 5 C2.01 5 1.02 5 0 5 C0 3.35 0 1.7 0 0 Z " fill="#2A114B" transform="translate(536,1469)"/>
<path d="M0 0 C0.33 1.32 0.66 2.64 1 4 C-0.32 4.33 -1.64 4.66 -3 5 C-2.625 3.0625 -2.625 3.0625 -2 1 C-1.34 0.67 -0.68 0.34 0 0 Z " fill="#2A114B" transform="translate(794,1428)"/>
<path d="M0 0 C0.33 0 0.66 0 1 0 C1 2.31 1 4.62 1 7 C0.01 7.495 0.01 7.495 -1 8 C-1.04241723 5.66705225 -1.04092937 3.33297433 -1 1 C-0.67 0.67 -0.34 0.34 0 0 Z " fill="#2A114B" transform="translate(533,1469)"/>
<path d="M0 0 C0.99 0 1.98 0 3 0 C3 0.99 3 1.98 3 3 C1.68 3.33 0.36 3.66 -1 4 C-0.67 2.68 -0.34 1.36 0 0 Z " fill="#2A114B" transform="translate(878,1381)"/>
<path d="M0 0 C0.99 0 1.98 0 3 0 C3 1.32 3 2.64 3 4 C2.01 4 1.02 4 0 4 C0 2.68 0 1.36 0 0 Z " fill="#2A114B" transform="translate(551,1542)"/>
<path d="M0 0 C1.32 0 2.64 0 4 0 C4 0.99 4 1.98 4 3 C2.68 3 1.36 3 0 3 C0 2.01 0 1.02 0 0 Z " fill="#2A114B" transform="translate(813,1428)"/>
<path d="M0 0 C0.99 0 1.98 0 3 0 C3 0.99 3 1.98 3 3 C1.35 3 -0.3 3 -2 3 C-1.34 2.01 -0.68 1.02 0 0 Z " fill="#2A114B" transform="translate(813,1421)"/>
<path d="M0 0 C1.32 0 2.64 0 4 0 C4 0.99 4 1.98 4 3 C2.68 3 1.36 3 0 3 C0 2.01 0 1.02 0 0 Z " fill="#2A114B" transform="translate(865,1394)"/>
<path d="M0 0 C0.99 0 1.98 0 3 0 C2.67 1.32 2.34 2.64 2 4 C1.34 4 0.68 4 0 4 C0 2.68 0 1.36 0 0 Z " fill="#2A114B" transform="translate(952,1298)"/>
<path d="M0 0 C0.66 0 1.32 0 2 0 C1.67 1.32 1.34 2.64 1 4 C0.34 4 -0.32 4 -1 4 C-0.67 2.68 -0.34 1.36 0 0 Z " fill="#2A114B" transform="translate(644,1517)"/>
<path d="M0 0 C0.66 0 1.32 0 2 0 C2.33 1.32 2.66 2.64 3 4 C2.01 4 1.02 4 0 4 C0 2.68 0 1.36 0 0 Z " fill="#2A114B" transform="translate(859,1400)"/>
<path d="M0 0 C0.99 0 1.98 0 3 0 C3 0.99 3 1.98 3 3 C2.01 3 1.02 3 0 3 C0 2.01 0 1.02 0 0 Z " fill="#2A114B" transform="translate(855,1404)"/>
<path d="M0 0 C1.98 0.495 1.98 0.495 4 1 C2.35 1.33 0.7 1.66 -1 2 C-0.67 1.34 -0.34 0.68 0 0 Z " fill="#2A114B" transform="translate(694,1503)"/>
<path d="M0 0 C0.66 0 1.32 0 2 0 C2 1.32 2 2.64 2 4 C1.34 4 0.68 4 0 4 C0 2.68 0 1.36 0 0 Z " fill="#2A114B" transform="translate(714,1489)"/>
<path d="M0 0 C0.66 0 1.32 0 2 0 C2 1.32 2 2.64 2 4 C1.34 4 0.68 4 0 4 C0 2.68 0 1.36 0 0 Z " fill="#2A114B" transform="translate(730,1481)"/>
<path d="M0 0 C1.32 0 2.64 0 4 0 C4 0.66 4 1.32 4 2 C2.68 2 1.36 2 0 2 C0 1.34 0 0.68 0 0 Z " fill="#2A114B" transform="translate(941,1310)"/>
<path d="M0 0 C0.66 0 1.32 0 2 0 C2 0.99 2 1.98 2 3 C1.34 3 0.68 3 0 3 C0 2.01 0 1.02 0 0 Z " fill="#2A114B" transform="translate(702,1491)"/>
<path d="M0 0 C0.99 0 1.98 0 3 0 C3 0.66 3 1.32 3 2 C2.01 2 1.02 2 0 2 C0 1.34 0 0.68 0 0 Z " fill="#2A114B" transform="translate(706,1480)"/>
<path d="M0 0 C0.66 0 1.32 0 2 0 C2 0.99 2 1.98 2 3 C1.34 3 0.68 3 0 3 C0 2.01 0 1.02 0 0 Z " fill="#2A114B" transform="translate(728,1469)"/>
<path d="M0 0 C0.99 0 1.98 0 3 0 C3 0.66 3 1.32 3 2 C2.01 2 1.02 2 0 2 C0 1.34 0 0.68 0 0 Z " fill="#2A114B" transform="translate(523,1464)"/>
<path d="M0 0 C0.66 0 1.32 0 2 0 C2 0.99 2 1.98 2 3 C1.34 3 0.68 3 0 3 C0 2.01 0 1.02 0 0 Z " fill="#2A114B" transform="translate(790,1441)"/>
<path d="M0 0 C0.66 0 1.32 0 2 0 C2 0.99 2 1.98 2 3 C1.34 3 0.68 3 0 3 C0 2.01 0 1.02 0 0 Z " fill="#2A114B" transform="translate(803,1432)"/>
<path d="M0 0 C0.66 0 1.32 0 2 0 C2 0.66 2 1.32 2 2 C1.34 2 0.68 2 0 2 C0 1.34 0 0.68 0 0 Z " fill="#2A114B" transform="translate(527,1464)"/>
<path d="M0 0 C0.66 0 1.32 0 2 0 C2 0.66 2 1.32 2 2 C1.34 2 0.68 2 0 2 C0 1.34 0 0.68 0 0 Z " fill="#2A114B" transform="translate(981,1220)"/>
</svg>
